<svg width="77" height="74" viewBox="0 0 77 74" fill="none" xmlns="http://www.w3.org/2000/svg">
<path d="M10.9792 71.7841C7.9912 67.8461 4.04561 62.4355 1.58027 57.9749M1.58027 57.9749C1.2961 57.461 4.46977 56.1573 4.62094 56.1145C7.93611 55.171 11.28 54.8586 14.6996 54.6404M1.58027 57.9749C20.5769 74.4215 42.2088 72.2133 51.4586 56.5987C52.3754 55.0512 53.372 53.3653 54.2452 51.5524M54.2452 51.5524C55.6357 48.6654 56.7135 45.4561 56.6583 41.9702C56.6071 38.753 55.5395 34.4693 53.348 32.6142C49.2541 29.149 44.6833 34.1759 45.3767 40.2371C45.986 45.5635 50.3548 51.256 54.2452 51.5524ZM54.2452 51.5524C54.3272 51.5587 54.4091 51.5625 54.4907 51.5639C74.1854 51.9004 79.5674 22.0281 72.4255 1.5658" stroke="black" stroke-width="2.5" stroke-miterlimit="1.5" stroke-linecap="round" stroke-linejoin="round"/>
</svg>
