<svg width="30" height="30" viewBox="0 0 30 30" fill="none" xmlns="http://www.w3.org/2000/svg">
<circle cx="15" cy="15" r="15" fill="#F4EAFF"/>
<path d="M21.7142 14.1212C22.2574 14.1212 22.4841 13.4233 22.0429 13.1017L15.3298 8.21846C15.234 8.14822 15.1182 8.11035 14.9994 8.11035C14.8805 8.11035 14.7648 8.14822 14.6689 8.21846L7.95582 13.1017C7.51461 13.4216 7.74137 14.1212 8.28629 14.1212H9.37438V20.6954H8.10875C8.03141 20.6954 7.96813 20.7587 7.96813 20.836V21.7501C7.96813 21.8274 8.03141 21.8907 8.10875 21.8907H21.89C21.9673 21.8907 22.0306 21.8274 22.0306 21.7501V20.836C22.0306 20.7587 21.9673 20.6954 21.89 20.6954H20.6244V14.1212H21.7142ZM14.9994 9.45771L19.7648 12.9241H10.2339L14.9994 9.45771ZM10.64 14.1212H12.6966V20.6954H10.64V14.1212ZM13.9623 14.1212H16.0189V20.6954H13.9623V14.1212ZM19.3588 20.6954H17.2845V14.1212H19.3588V20.6954Z" fill="black"/>
</svg>
