<svg width="24" height="24" viewBox="0 0 24 24" fill="none" xmlns="http://www.w3.org/2000/svg">
<path d="M20 9H11C9.89543 9 9 9.89543 9 11V20C9 21.1046 9.89543 22 11 22H20C21.1046 22 22 21.1046 22 20V11C22 9.89543 21.1046 9 20 9Z" stroke="#8311F9" strokeWidth="1.5" stroke-linecap="round" stroke-linejoin="round"/>
<path d="M5.00195 15H4.00195C3.47152 15 2.96281 14.7893 2.58774 14.4142C2.21267 14.0391 2.00195 13.5304 2.00195 13V4C2.00195 3.46957 2.21267 2.96086 2.58774 2.58579C2.96281 2.21071 3.47152 2 4.00195 2H13.002C13.5324 2 14.0411 2.21071 14.4162 2.58579C14.7912 2.96086 15.002 3.46957 15.002 4V5" stroke="#8311F9" strokeWidth="1.5" stroke-linecap="round" stroke-linejoin="round"/>
</svg>
