<svg width="1728" height="733" viewBox="0 0 1728 733" fill="none" xmlns="http://www.w3.org/2000/svg">
<mask id="path-1-inside-1_537_3905" fill="white">
<path d="M715.959 462.22C721.553 458.99 728.446 458.99 734.04 462.22L836.337 521.281C841.931 524.51 845.377 530.48 845.377 536.939V655.061C845.377 661.521 841.931 667.49 836.336 670.72L734.04 729.781C728.446 733.01 721.553 733.01 715.959 729.781L613.663 670.72C608.068 667.49 604.622 661.521 604.622 655.061V536.939C604.622 530.48 608.068 524.51 613.663 521.281L715.959 462.22Z"/>
<path d="M161.959 462.22C167.553 458.99 174.446 458.99 180.04 462.22L282.336 521.281C287.931 524.51 291.377 530.48 291.377 536.939V655.061C291.377 661.521 287.931 667.49 282.336 670.72L180.04 729.781C174.446 733.01 167.553 733.01 161.959 729.781L59.6627 670.72C54.0684 667.49 50.6221 661.521 50.6221 655.061V536.939C50.6221 530.48 54.0684 524.51 59.6627 521.281L161.959 462.22Z"/>
<path d="M1817.96 3.2198C1823.55 -0.0101156 1830.45 -0.0101142 1836.04 3.2198L1938.34 62.2806C1943.93 65.5105 1947.38 71.4796 1947.38 77.9394V196.061C1947.38 202.521 1943.93 208.49 1938.34 211.72L1836.04 270.781C1830.45 274.01 1823.55 274.01 1817.96 270.781L1715.66 211.72C1710.07 208.49 1706.62 202.521 1706.62 196.061V77.9394C1706.62 71.4796 1710.07 65.5105 1715.66 62.2806L1817.96 3.2198Z"/>
<path d="M-116.041 3.2198C-110.447 -0.0101156 -103.554 -0.0101142 -97.9597 3.2198L4.33649 62.2806C9.93085 65.5105 13.3771 71.4796 13.3771 77.9394V196.061C13.3771 202.521 9.93085 208.49 4.33649 211.72L-97.9597 270.781C-103.554 274.01 -110.447 274.01 -116.041 270.781L-218.337 211.72C-223.932 208.49 -227.378 202.521 -227.378 196.061V77.9394C-227.378 71.4796 -223.932 65.5105 -218.337 62.2806L-116.041 3.2198Z"/>
<path d="M161.959 3.2198C167.553 -0.0101156 174.446 -0.0101142 180.04 3.2198L282.336 62.2806C287.931 65.5105 291.377 71.4796 291.377 77.9394V196.061C291.377 202.521 287.931 208.49 282.336 211.72L180.04 270.781C174.446 274.01 167.553 274.01 161.959 270.781L59.6627 211.72C54.0684 208.49 50.6221 202.521 50.6221 196.061V77.9394C50.6221 71.4796 54.0684 65.5105 59.6627 62.2806L161.959 3.2198Z"/>
<path d="M-113.041 462.22C-107.447 458.99 -100.554 458.99 -94.9597 462.22L7.33649 521.281C12.9308 524.51 16.3771 530.48 16.3771 536.939V655.061C16.3771 661.521 12.9308 667.49 7.33649 670.72L-94.9597 729.781C-100.554 733.01 -107.447 733.01 -113.041 729.781L-215.337 670.72C-220.932 667.49 -224.378 661.521 -224.378 655.061V536.939C-224.378 530.48 -220.932 524.51 -215.337 521.281L-113.041 462.22Z"/>
<path d="M1686.96 234.22C1692.55 230.99 1699.45 230.99 1705.04 234.22L1807.34 293.281C1812.93 296.51 1816.38 302.48 1816.38 308.939V427.061C1816.38 433.521 1812.93 439.49 1807.34 442.72L1705.04 501.781C1699.45 505.01 1692.55 505.01 1686.96 501.781L1584.66 442.72C1579.07 439.49 1575.62 433.521 1575.62 427.061V308.939C1575.62 302.48 1579.07 296.51 1584.66 293.281L1686.96 234.22Z"/>
<path d="M1963.96 234.22C1969.55 230.99 1976.45 230.99 1982.04 234.22L2084.34 293.281C2089.93 296.51 2093.38 302.48 2093.38 308.939V427.061C2093.38 433.521 2089.93 439.49 2084.34 442.72L1982.04 501.781C1976.45 505.01 1969.55 505.01 1963.96 501.781L1861.66 442.72C1856.07 439.49 1852.62 433.521 1852.62 427.061V308.939C1852.62 302.48 1856.07 296.51 1861.66 293.281L1963.96 234.22Z"/>
<path d="M24.959 234.22C30.5533 230.99 37.4459 230.99 43.0403 234.22L145.336 293.281C150.931 296.51 154.377 302.48 154.377 308.939V427.061C154.377 433.521 150.931 439.49 145.336 442.72L43.0403 501.781C37.4459 505.01 30.5533 505.01 24.959 501.781L-77.3373 442.72C-82.9316 439.49 -86.3779 433.521 -86.3779 427.061V308.939C-86.3779 302.48 -82.9316 296.51 -77.3373 293.281L24.959 234.22Z"/>
<path d="M302.959 234.22C308.553 230.99 315.446 230.99 321.04 234.22L423.336 293.281C428.931 296.51 432.377 302.48 432.377 308.939V427.061C432.377 433.521 428.931 439.49 423.336 442.72L321.04 501.781C315.446 505.01 308.553 505.01 302.959 501.781L200.663 442.72C195.068 439.49 191.622 433.521 191.622 427.061V308.939C191.622 302.48 195.068 296.51 200.663 293.281L302.959 234.22Z"/>
<path d="M580.959 234.22C586.553 230.99 593.446 230.99 599.04 234.22L701.337 293.281C706.931 296.51 710.377 302.48 710.377 308.939V427.061C710.377 433.521 706.931 439.49 701.336 442.72L599.04 501.781C593.446 505.01 586.553 505.01 580.959 501.781L478.663 442.72C473.068 439.49 469.622 433.521 469.622 427.061V308.939C469.622 302.48 473.068 296.51 478.663 293.281L580.959 234.22Z"/>
<path d="M-255.041 234.22C-249.447 230.99 -242.554 230.99 -236.96 234.22L-134.664 293.281C-129.069 296.51 -125.623 302.48 -125.623 308.939V427.061C-125.623 433.521 -129.069 439.49 -134.664 442.72L-236.96 501.781C-242.554 505.01 -249.447 505.01 -255.041 501.781L-357.337 442.72C-362.932 439.49 -366.378 433.521 -366.378 427.061V308.939C-366.378 302.48 -362.932 296.51 -357.337 293.281L-255.041 234.22Z"/>
<path d="M1549.96 462.22C1555.55 458.99 1562.45 458.99 1568.04 462.22L1670.34 521.281C1675.93 524.51 1679.38 530.48 1679.38 536.939V655.061C1679.38 661.521 1675.93 667.49 1670.34 670.72L1568.04 729.781C1562.45 733.01 1555.55 733.01 1549.96 729.781L1447.66 670.72C1442.07 667.49 1438.62 661.521 1438.62 655.061V536.939C1438.62 530.48 1442.07 524.51 1447.66 521.281L1549.96 462.22Z"/>
<path d="M1825.96 462.22C1831.55 458.99 1838.45 458.99 1844.04 462.22L1946.34 521.281C1951.93 524.51 1955.38 530.48 1955.38 536.939V655.061C1955.38 661.521 1951.93 667.49 1946.34 670.72L1844.04 729.781C1838.45 733.01 1831.55 733.01 1825.96 729.781L1723.66 670.72C1718.07 667.49 1714.62 661.521 1714.62 655.061V536.939C1714.62 530.48 1718.07 524.51 1723.66 521.281L1825.96 462.22Z"/>
<path d="M993.959 462.22C999.553 458.99 1006.45 458.99 1012.04 462.22L1114.34 521.281C1119.93 524.51 1123.38 530.48 1123.38 536.939V655.061C1123.38 661.521 1119.93 667.49 1114.34 670.72L1012.04 729.781C1006.45 733.01 999.553 733.01 993.959 729.781L891.663 670.72C886.068 667.49 882.622 661.521 882.622 655.061V536.939C882.622 530.48 886.068 524.51 891.663 521.281L993.959 462.22Z"/>
<path d="M439.959 462.22C445.553 458.99 452.446 458.99 458.04 462.22L560.336 521.281C565.931 524.51 569.377 530.48 569.377 536.939V655.061C569.377 661.521 565.931 667.49 560.336 670.72L458.04 729.781C452.446 733.01 445.553 733.01 439.959 729.781L337.663 670.72C332.068 667.49 328.622 661.521 328.622 655.061V536.939C328.622 530.48 332.068 524.51 337.663 521.281L439.959 462.22Z"/>
</mask>
<path d="M715.959 462.22C721.553 458.99 728.446 458.99 734.04 462.22L836.337 521.281C841.931 524.51 845.377 530.48 845.377 536.939V655.061C845.377 661.521 841.931 667.49 836.336 670.72L734.04 729.781C728.446 733.01 721.553 733.01 715.959 729.781L613.663 670.72C608.068 667.49 604.622 661.521 604.622 655.061V536.939C604.622 530.48 608.068 524.51 613.663 521.281L715.959 462.22Z" stroke="url(#paint0_linear_537_3905)" strokeOpacity="0.3" strokeWidth="2" mask="url(#path-1-inside-1_537_3905)"/>
<path d="M161.959 462.22C167.553 458.99 174.446 458.99 180.04 462.22L282.336 521.281C287.931 524.51 291.377 530.48 291.377 536.939V655.061C291.377 661.521 287.931 667.49 282.336 670.72L180.04 729.781C174.446 733.01 167.553 733.01 161.959 729.781L59.6627 670.72C54.0684 667.49 50.6221 661.521 50.6221 655.061V536.939C50.6221 530.48 54.0684 524.51 59.6627 521.281L161.959 462.22Z" stroke="url(#paint1_linear_537_3905)" strokeOpacity="0.3" strokeWidth="2" mask="url(#path-1-inside-1_537_3905)"/>
<path d="M1817.96 3.2198C1823.55 -0.0101156 1830.45 -0.0101142 1836.04 3.2198L1938.34 62.2806C1943.93 65.5105 1947.38 71.4796 1947.38 77.9394V196.061C1947.38 202.521 1943.93 208.49 1938.34 211.72L1836.04 270.781C1830.45 274.01 1823.55 274.01 1817.96 270.781L1715.66 211.72C1710.07 208.49 1706.62 202.521 1706.62 196.061V77.9394C1706.62 71.4796 1710.07 65.5105 1715.66 62.2806L1817.96 3.2198Z" stroke="url(#paint2_linear_537_3905)" strokeOpacity="0.3" strokeWidth="2" mask="url(#path-1-inside-1_537_3905)"/>
<path d="M-116.041 3.2198C-110.447 -0.0101156 -103.554 -0.0101142 -97.9597 3.2198L4.33649 62.2806C9.93085 65.5105 13.3771 71.4796 13.3771 77.9394V196.061C13.3771 202.521 9.93085 208.49 4.33649 211.72L-97.9597 270.781C-103.554 274.01 -110.447 274.01 -116.041 270.781L-218.337 211.72C-223.932 208.49 -227.378 202.521 -227.378 196.061V77.9394C-227.378 71.4796 -223.932 65.5105 -218.337 62.2806L-116.041 3.2198Z" stroke="url(#paint3_linear_537_3905)" strokeOpacity="0.3" strokeWidth="2" mask="url(#path-1-inside-1_537_3905)"/>
<path d="M161.959 3.2198C167.553 -0.0101156 174.446 -0.0101142 180.04 3.2198L282.336 62.2806C287.931 65.5105 291.377 71.4796 291.377 77.9394V196.061C291.377 202.521 287.931 208.49 282.336 211.72L180.04 270.781C174.446 274.01 167.553 274.01 161.959 270.781L59.6627 211.72C54.0684 208.49 50.6221 202.521 50.6221 196.061V77.9394C50.6221 71.4796 54.0684 65.5105 59.6627 62.2806L161.959 3.2198Z" stroke="url(#paint4_linear_537_3905)" strokeOpacity="0.3" strokeWidth="2" mask="url(#path-1-inside-1_537_3905)"/>
<path d="M-113.041 462.22C-107.447 458.99 -100.554 458.99 -94.9597 462.22L7.33649 521.281C12.9308 524.51 16.3771 530.48 16.3771 536.939V655.061C16.3771 661.521 12.9308 667.49 7.33649 670.72L-94.9597 729.781C-100.554 733.01 -107.447 733.01 -113.041 729.781L-215.337 670.72C-220.932 667.49 -224.378 661.521 -224.378 655.061V536.939C-224.378 530.48 -220.932 524.51 -215.337 521.281L-113.041 462.22Z" stroke="url(#paint5_linear_537_3905)" strokeOpacity="0.3" strokeWidth="2" mask="url(#path-1-inside-1_537_3905)"/>
<path d="M1686.96 234.22C1692.55 230.99 1699.45 230.99 1705.04 234.22L1807.34 293.281C1812.93 296.51 1816.38 302.48 1816.38 308.939V427.061C1816.38 433.521 1812.93 439.49 1807.34 442.72L1705.04 501.781C1699.45 505.01 1692.55 505.01 1686.96 501.781L1584.66 442.72C1579.07 439.49 1575.62 433.521 1575.62 427.061V308.939C1575.62 302.48 1579.07 296.51 1584.66 293.281L1686.96 234.22Z" stroke="url(#paint6_linear_537_3905)" strokeOpacity="0.3" strokeWidth="2" mask="url(#path-1-inside-1_537_3905)"/>
<path d="M1963.96 234.22C1969.55 230.99 1976.45 230.99 1982.04 234.22L2084.34 293.281C2089.93 296.51 2093.38 302.48 2093.38 308.939V427.061C2093.38 433.521 2089.93 439.49 2084.34 442.72L1982.04 501.781C1976.45 505.01 1969.55 505.01 1963.96 501.781L1861.66 442.72C1856.07 439.49 1852.62 433.521 1852.62 427.061V308.939C1852.62 302.48 1856.07 296.51 1861.66 293.281L1963.96 234.22Z" stroke="url(#paint7_linear_537_3905)" strokeOpacity="0.3" strokeWidth="2" mask="url(#path-1-inside-1_537_3905)"/>
<path d="M24.959 234.22C30.5533 230.99 37.4459 230.99 43.0403 234.22L145.336 293.281C150.931 296.51 154.377 302.48 154.377 308.939V427.061C154.377 433.521 150.931 439.49 145.336 442.72L43.0403 501.781C37.4459 505.01 30.5533 505.01 24.959 501.781L-77.3373 442.72C-82.9316 439.49 -86.3779 433.521 -86.3779 427.061V308.939C-86.3779 302.48 -82.9316 296.51 -77.3373 293.281L24.959 234.22Z" stroke="url(#paint8_linear_537_3905)" strokeOpacity="0.3" strokeWidth="2" mask="url(#path-1-inside-1_537_3905)"/>
<path d="M302.959 234.22C308.553 230.99 315.446 230.99 321.04 234.22L423.336 293.281C428.931 296.51 432.377 302.48 432.377 308.939V427.061C432.377 433.521 428.931 439.49 423.336 442.72L321.04 501.781C315.446 505.01 308.553 505.01 302.959 501.781L200.663 442.72C195.068 439.49 191.622 433.521 191.622 427.061V308.939C191.622 302.48 195.068 296.51 200.663 293.281L302.959 234.22Z" stroke="url(#paint9_linear_537_3905)" strokeOpacity="0.3" strokeWidth="2" mask="url(#path-1-inside-1_537_3905)"/>
<path d="M580.959 234.22C586.553 230.99 593.446 230.99 599.04 234.22L701.337 293.281C706.931 296.51 710.377 302.48 710.377 308.939V427.061C710.377 433.521 706.931 439.49 701.336 442.72L599.04 501.781C593.446 505.01 586.553 505.01 580.959 501.781L478.663 442.72C473.068 439.49 469.622 433.521 469.622 427.061V308.939C469.622 302.48 473.068 296.51 478.663 293.281L580.959 234.22Z" stroke="url(#paint10_linear_537_3905)" strokeOpacity="0.3" strokeWidth="2" mask="url(#path-1-inside-1_537_3905)"/>
<path d="M-255.041 234.22C-249.447 230.99 -242.554 230.99 -236.96 234.22L-134.664 293.281C-129.069 296.51 -125.623 302.48 -125.623 308.939V427.061C-125.623 433.521 -129.069 439.49 -134.664 442.72L-236.96 501.781C-242.554 505.01 -249.447 505.01 -255.041 501.781L-357.337 442.72C-362.932 439.49 -366.378 433.521 -366.378 427.061V308.939C-366.378 302.48 -362.932 296.51 -357.337 293.281L-255.041 234.22Z" stroke="url(#paint11_linear_537_3905)" strokeOpacity="0.3" strokeWidth="2" mask="url(#path-1-inside-1_537_3905)"/>
<path d="M1549.96 462.22C1555.55 458.99 1562.45 458.99 1568.04 462.22L1670.34 521.281C1675.93 524.51 1679.38 530.48 1679.38 536.939V655.061C1679.38 661.521 1675.93 667.49 1670.34 670.72L1568.04 729.781C1562.45 733.01 1555.55 733.01 1549.96 729.781L1447.66 670.72C1442.07 667.49 1438.62 661.521 1438.62 655.061V536.939C1438.62 530.48 1442.07 524.51 1447.66 521.281L1549.96 462.22Z" stroke="url(#paint12_linear_537_3905)" strokeOpacity="0.3" strokeWidth="2" mask="url(#path-1-inside-1_537_3905)"/>
<path d="M1825.96 462.22C1831.55 458.99 1838.45 458.99 1844.04 462.22L1946.34 521.281C1951.93 524.51 1955.38 530.48 1955.38 536.939V655.061C1955.38 661.521 1951.93 667.49 1946.34 670.72L1844.04 729.781C1838.45 733.01 1831.55 733.01 1825.96 729.781L1723.66 670.72C1718.07 667.49 1714.62 661.521 1714.62 655.061V536.939C1714.62 530.48 1718.07 524.51 1723.66 521.281L1825.96 462.22Z" stroke="url(#paint13_linear_537_3905)" strokeOpacity="0.3" strokeWidth="2" mask="url(#path-1-inside-1_537_3905)"/>
<path d="M993.959 462.22C999.553 458.99 1006.45 458.99 1012.04 462.22L1114.34 521.281C1119.93 524.51 1123.38 530.48 1123.38 536.939V655.061C1123.38 661.521 1119.93 667.49 1114.34 670.72L1012.04 729.781C1006.45 733.01 999.553 733.01 993.959 729.781L891.663 670.72C886.068 667.49 882.622 661.521 882.622 655.061V536.939C882.622 530.48 886.068 524.51 891.663 521.281L993.959 462.22Z" stroke="url(#paint14_linear_537_3905)" strokeOpacity="0.3" strokeWidth="2" mask="url(#path-1-inside-1_537_3905)"/>
<path d="M439.959 462.22C445.553 458.99 452.446 458.99 458.04 462.22L560.336 521.281C565.931 524.51 569.377 530.48 569.377 536.939V655.061C569.377 661.521 565.931 667.49 560.336 670.72L458.04 729.781C452.446 733.01 445.553 733.01 439.959 729.781L337.663 670.72C332.068 667.49 328.622 661.521 328.622 655.061V536.939C328.622 530.48 332.068 524.51 337.663 521.281L439.959 462.22Z" stroke="url(#paint15_linear_537_3905)" strokeOpacity="0.3" strokeWidth="2" mask="url(#path-1-inside-1_537_3905)"/>
<defs>
<linearGradient id="paint0_linear_537_3905" x1="449" y1="-412" x2="449" y2="898.5" gradientUnits="userSpaceOnUse">
<stop stop-color="#E7E7E7"/>
<stop offset="0.990627" stop-color="#161616" stop-opacity="0"/>
</linearGradient>
<linearGradient id="paint1_linear_537_3905" x1="449" y1="-412" x2="449" y2="898.5" gradientUnits="userSpaceOnUse">
<stop stop-color="#E7E7E7"/>
<stop offset="0.990627" stop-color="#161616" stop-opacity="0"/>
</linearGradient>
<linearGradient id="paint2_linear_537_3905" x1="449" y1="-412" x2="449" y2="898.5" gradientUnits="userSpaceOnUse">
<stop stop-color="#E7E7E7"/>
<stop offset="0.990627" stop-color="#161616" stop-opacity="0"/>
</linearGradient>
<linearGradient id="paint3_linear_537_3905" x1="449" y1="-412" x2="449" y2="898.5" gradientUnits="userSpaceOnUse">
<stop stop-color="#E7E7E7"/>
<stop offset="0.990627" stop-color="#161616" stop-opacity="0"/>
</linearGradient>
<linearGradient id="paint4_linear_537_3905" x1="449" y1="-412" x2="449" y2="898.5" gradientUnits="userSpaceOnUse">
<stop stop-color="#E7E7E7"/>
<stop offset="0.990627" stop-color="#161616" stop-opacity="0"/>
</linearGradient>
<linearGradient id="paint5_linear_537_3905" x1="449" y1="-412" x2="449" y2="898.5" gradientUnits="userSpaceOnUse">
<stop stop-color="#E7E7E7"/>
<stop offset="0.990627" stop-color="#161616" stop-opacity="0"/>
</linearGradient>
<linearGradient id="paint6_linear_537_3905" x1="449" y1="-412" x2="449" y2="898.5" gradientUnits="userSpaceOnUse">
<stop stop-color="#E7E7E7"/>
<stop offset="0.990627" stop-color="#161616" stop-opacity="0"/>
</linearGradient>
<linearGradient id="paint7_linear_537_3905" x1="449" y1="-412" x2="449" y2="898.5" gradientUnits="userSpaceOnUse">
<stop stop-color="#E7E7E7"/>
<stop offset="0.990627" stop-color="#161616" stop-opacity="0"/>
</linearGradient>
<linearGradient id="paint8_linear_537_3905" x1="449" y1="-412" x2="449" y2="898.5" gradientUnits="userSpaceOnUse">
<stop stop-color="#E7E7E7"/>
<stop offset="0.990627" stop-color="#161616" stop-opacity="0"/>
</linearGradient>
<linearGradient id="paint9_linear_537_3905" x1="449" y1="-412" x2="449" y2="898.5" gradientUnits="userSpaceOnUse">
<stop stop-color="#E7E7E7"/>
<stop offset="0.990627" stop-color="#161616" stop-opacity="0"/>
</linearGradient>
<linearGradient id="paint10_linear_537_3905" x1="449" y1="-412" x2="449" y2="898.5" gradientUnits="userSpaceOnUse">
<stop stop-color="#E7E7E7"/>
<stop offset="0.990627" stop-color="#161616" stop-opacity="0"/>
</linearGradient>
<linearGradient id="paint11_linear_537_3905" x1="449" y1="-412" x2="449" y2="898.5" gradientUnits="userSpaceOnUse">
<stop stop-color="#E7E7E7"/>
<stop offset="0.990627" stop-color="#161616" stop-opacity="0"/>
</linearGradient>
<linearGradient id="paint12_linear_537_3905" x1="449" y1="-412" x2="449" y2="898.5" gradientUnits="userSpaceOnUse">
<stop stop-color="#E7E7E7"/>
<stop offset="0.990627" stop-color="#161616" stop-opacity="0"/>
</linearGradient>
<linearGradient id="paint13_linear_537_3905" x1="449" y1="-412" x2="449" y2="898.5" gradientUnits="userSpaceOnUse">
<stop stop-color="#E7E7E7"/>
<stop offset="0.990627" stop-color="#161616" stop-opacity="0"/>
</linearGradient>
<linearGradient id="paint14_linear_537_3905" x1="449" y1="-412" x2="449" y2="898.5" gradientUnits="userSpaceOnUse">
<stop stop-color="#E7E7E7"/>
<stop offset="0.990627" stop-color="#161616" stop-opacity="0"/>
</linearGradient>
<linearGradient id="paint15_linear_537_3905" x1="449" y1="-412" x2="449" y2="898.5" gradientUnits="userSpaceOnUse">
<stop stop-color="#E7E7E7"/>
<stop offset="0.990627" stop-color="#161616" stop-opacity="0"/>
</linearGradient>
</defs>
</svg>
