<svg width="20" height="20" viewBox="0 0 20 20" fill="none" xmlns="http://www.w3.org/2000/svg">
<path d="M10 18.3334C14.5917 18.3334 18.3334 14.5918 18.3334 10.0001C18.3334 5.40842 14.5917 1.66675 10 1.66675C5.40837 1.66675 1.66671 5.40842 1.66671 10.0001C1.66671 14.5918 5.40837 18.3334 10 18.3334ZM10.625 13.3334C10.625 13.6751 10.3417 13.9584 10 13.9584C9.65837 13.9584 9.37504 13.6751 9.37504 13.3334L9.37504 9.16675C9.37504 8.82509 9.65837 8.54175 10 8.54175C10.3417 8.54175 10.625 8.82509 10.625 9.16675V13.3334ZM9.23337 6.35009C9.27504 6.24175 9.33337 6.15842 9.40837 6.07509C9.49171 6.00009 9.58337 5.94175 9.68337 5.90009C9.78337 5.85842 9.89171 5.83342 10 5.83342C10.1084 5.83342 10.2167 5.85842 10.3167 5.90009C10.4167 5.94175 10.5084 6.00009 10.5917 6.07509C10.6667 6.15842 10.725 6.24175 10.7667 6.35009C10.8084 6.45009 10.8334 6.55842 10.8334 6.66675C10.8334 6.77509 10.8084 6.88342 10.7667 6.98342C10.725 7.08342 10.6667 7.17509 10.5917 7.25842C10.5084 7.33342 10.4167 7.39175 10.3167 7.43342C10.1167 7.51675 9.88337 7.51675 9.68337 7.43342C9.58337 7.39175 9.49171 7.33342 9.40837 7.25842C9.33337 7.17509 9.27504 7.08342 9.23337 6.98342C9.19171 6.88342 9.16671 6.77509 9.16671 6.66675C9.16671 6.55842 9.19171 6.45009 9.23337 6.35009Z" fill="#181818"/>
</svg>
