<svg width="16" height="16" viewBox="0 0 16 16" fill="none" xmlns="http://www.w3.org/2000/svg">
<path d="M11.0002 12.1666H9.99353C9.7202 12.1666 9.49353 11.94 9.49353 11.6666C9.49353 11.3933 9.7202 11.1666 9.99353 11.1666H11.0002C12.7469 11.1666 14.1669 9.74665 14.1669 7.99998C14.1669 6.25331 12.7469 4.83331 11.0002 4.83331H10.0002C9.72686 4.83331 9.5002 4.60665 9.5002 4.33331C9.5002 4.05998 9.7202 3.83331 10.0002 3.83331H11.0002C13.3002 3.83331 15.1669 5.69998 15.1669 7.99998C15.1669 10.3 13.3002 12.1666 11.0002 12.1666Z" fill="#7D0BFE"/>
<path d="M6.00004 12.1666H5.00004C2.70004 12.1666 0.833374 10.3 0.833374 7.99998C0.833374 5.69998 2.70004 3.83331 5.00004 3.83331H6.00004C6.27337 3.83331 6.50004 4.05998 6.50004 4.33331C6.50004 4.60665 6.27337 4.83331 6.00004 4.83331H5.00004C3.25337 4.83331 1.83337 6.25331 1.83337 7.99998C1.83337 9.74665 3.25337 11.1666 5.00004 11.1666H6.00004C6.27337 11.1666 6.50004 11.3933 6.50004 11.6666C6.50004 11.94 6.27337 12.1666 6.00004 12.1666Z" fill="#7D0BFE"/>
<path d="M10.6667 8.5H5.33337C5.06004 8.5 4.83337 8.27333 4.83337 8C4.83337 7.72667 5.06004 7.5 5.33337 7.5H10.6667C10.94 7.5 11.1667 7.72667 11.1667 8C11.1667 8.27333 10.94 8.5 10.6667 8.5Z" fill="#7D0BFE"/>
</svg>
