<svg width="12" height="12" viewBox="0 0 12 12" fill="none" xmlns="http://www.w3.org/2000/svg">
<path d="M2.6835 3.75H0V12H2.6835V3.75Z" fill="#7D0BFE"/>
<path d="M9.993 3.84675C9.9645 3.83775 9.9375 3.828 9.9075 3.81975C9.8715 3.8115 9.8355 3.80475 9.79875 3.79875C9.65625 3.77025 9.50025 3.75 9.31725 3.75C7.75275 3.75 6.7605 4.88775 6.4335 5.32725V3.75H3.75V12H6.4335V7.5C6.4335 7.5 8.4615 4.6755 9.31725 6.75C9.31725 8.60175 9.31725 12 9.31725 12H12V6.43275C12 5.18625 11.1458 4.1475 9.993 3.84675Z" fill="#7D0BFE"/>
<path d="M1.3125 2.625C2.03737 2.625 2.625 2.03737 2.625 1.3125C2.625 0.587626 2.03737 0 1.3125 0C0.587626 0 0 0.587626 0 1.3125C0 2.03737 0.587626 2.625 1.3125 2.625Z" fill="#7D0BFE"/>
</svg>
