<svg width="98" height="91" viewBox="0 0 98 91" fill="none" xmlns="http://www.w3.org/2000/svg">
<g clip-path="url(#clip0_679_1729)">
<path d="M0 81.139V9.89331C0.0485743 9.81499 0.127827 9.74172 0.14061 9.65835C0.897347 4.39324 5.75222 -0.0381437 12.2458 -0.000246999C31.7267 0.113443 51.2101 0.0401761 70.6936 0.0427026C77.7189 0.0427026 82.6684 4.944 82.671 11.9018V53.098C84.0898 53.098 85.363 53.098 86.6362 53.098C89.6382 53.1414 92.5041 54.3428 94.6221 56.4457C96.74 58.5487 97.9422 61.3865 97.9719 64.3533C98.0077 69.4972 98.0077 74.6427 97.9719 79.7899C97.9207 85.9014 92.8588 90.9669 86.672 90.9745C61.5462 91.0048 36.4197 91.0048 11.2923 90.9745C7.59805 90.9745 4.61712 89.3348 2.32646 86.4623C1.07119 84.8883 0.511309 83.0313 0 81.139ZM75.6737 83.4128C74.7431 80.7929 75.032 78.1907 75.0295 75.6137C75.0141 54.432 75.0141 33.2486 75.0295 12.0635C75.0295 9.052 73.5697 7.61951 70.5069 7.61951H12.0515C9.13709 7.61951 7.65429 9.09495 7.65429 11.9953V79.0522C7.65429 81.9425 9.14476 83.4128 12.0694 83.4128H75.6737ZM82.6786 60.7077C82.6786 67.135 82.6582 73.441 82.6914 79.7444C82.7245 80.7192 83.1387 81.6432 83.8471 82.3222C84.5555 83.0013 85.5027 83.3823 86.4896 83.3853C87.4764 83.3882 88.426 83.0128 89.1385 82.338C89.851 81.6632 90.2709 80.7417 90.3099 79.7672C90.3525 74.6284 90.3525 69.4913 90.3099 64.3559C90.3116 63.4603 89.9785 62.5956 89.3746 61.9279C88.7706 61.2601 87.9383 60.8364 87.0375 60.738C85.6263 60.6016 84.1921 60.7077 82.6735 60.7077H82.6786Z" fill="#E7E7E7"/>
<path d="M15.3516 45.4509V15.2498H67.2826V45.4509H15.3516ZM59.6616 22.8468H23.0416V37.8968H59.6616V22.8468Z" fill="#E7E7E7"/>
<path d="M67.3178 53.1614V60.6346H15.3867V53.1614H67.3178Z" fill="#E7E7E7"/>
<path d="M15.3633 68.2974H67.2918V75.7756H15.3633V68.2974Z" fill="#E7E7E7"/>
</g>
<defs>
<clipPath id="clip0_679_1729">
<rect width="98" height="91" fill="white"/>
</clipPath>
</defs>
</svg>
