<svg width="773" height="640" viewBox="0 0 773 640" fill="none" xmlns="http://www.w3.org/2000/svg">
<g clipPath="url(#clip0_388_9482)">
<path d="M0 0H773V624C773 632.837 765.837 640 757 640H16C7.16342 640 0 632.837 0 624V0Z" fill="#F8F2FF"/>
<rect width="773" height="78" transform="translate(0 562)" fill="black"/>
<path d="M46.952 598H52.636V596.88H48.17V588.2H46.952V598ZM53.5555 592.512C53.2755 593.072 53.1355 593.702 53.1355 594.43C53.1355 595.158 53.2755 595.788 53.5695 596.348C53.8635 596.908 54.2835 597.328 54.8155 597.636C55.3475 597.944 55.9635 598.084 56.6775 598.084C57.4895 598.084 58.1755 597.86 58.7355 597.398C59.2955 596.936 59.6455 596.334 59.7855 595.606H58.6235C58.4975 596.068 58.2595 596.432 57.8955 596.684C57.5315 596.936 57.0975 597.062 56.5935 597.062C55.9215 597.062 55.3895 596.852 54.9835 596.432C54.5635 596.012 54.3535 595.452 54.3395 594.752V594.654H59.8835C59.8975 594.43 59.9115 594.276 59.9115 594.164C59.8835 593.478 59.7295 592.876 59.4495 592.358C59.1555 591.854 58.7635 591.462 58.2595 591.182C57.7555 590.916 57.1675 590.776 56.5235 590.776C55.8515 590.776 55.2635 590.93 54.7595 591.238C54.2415 591.546 53.8355 591.966 53.5555 592.512ZM58.7215 593.702H54.4095C54.4655 593.142 54.6895 592.68 55.1095 592.316C55.5155 591.966 55.9915 591.784 56.5375 591.784C57.1395 591.784 57.6435 591.952 58.0355 592.288C58.4275 592.624 58.6655 593.1 58.7215 593.702ZM66.8075 591.56C66.2755 591.042 65.5895 590.776 64.7215 590.776C63.6855 590.776 62.9015 591.126 62.3695 591.826L62.2155 590.86H61.2215V598H62.3695V594.43C62.3695 593.632 62.5515 593.002 62.9435 592.526C63.3215 592.064 63.8535 591.826 64.5255 591.826C65.1415 591.826 65.6175 592.022 65.9535 592.414C66.2895 592.806 66.4575 593.366 66.4575 594.094V598H67.6055V594.024C67.6055 592.904 67.3395 592.092 66.8075 591.56ZM75.8452 590.86H74.8512L74.6972 592.092C74.4592 591.672 74.1372 591.35 73.7312 591.126C73.3112 590.902 72.8212 590.776 72.2472 590.776C71.5892 590.776 71.0012 590.93 70.4832 591.238C69.9512 591.546 69.5452 591.98 69.2512 592.526C68.9572 593.086 68.8172 593.716 68.8172 594.43C68.8172 595.186 68.9572 595.844 69.2512 596.39C69.5452 596.95 69.9512 597.37 70.4692 597.65C70.9872 597.944 71.5752 598.084 72.2472 598.084C73.3672 598.084 74.1792 597.65 74.6972 596.768V597.608C74.6972 599.12 73.9272 599.862 72.3872 599.862C71.7852 599.862 71.2952 599.75 70.9172 599.498C70.5252 599.26 70.2872 598.91 70.2032 598.462H69.0272C69.1112 599.246 69.4472 599.834 70.0352 600.254C70.6232 600.674 71.3792 600.884 72.3032 600.884C74.6552 600.884 75.8452 599.806 75.8452 597.65V590.86ZM73.5772 596.74C73.2132 596.964 72.8072 597.062 72.3592 597.062C71.6452 597.062 71.0712 596.824 70.6372 596.334C70.2032 595.844 69.9932 595.214 69.9932 594.43C69.9932 593.66 70.2032 593.03 70.6372 592.54C71.0712 592.05 71.6452 591.798 72.3592 591.798C72.8072 591.798 73.2132 591.91 73.5772 592.134C73.9412 592.358 74.2212 592.68 74.4172 593.086C74.6132 593.492 74.7112 593.954 74.7112 594.458C74.7112 594.962 74.6132 595.424 74.4172 595.816C74.2212 596.208 73.9412 596.516 73.5772 596.74ZM77.9123 591.91V596.138C77.9123 596.782 78.0523 597.258 78.3323 597.552C78.6123 597.86 79.1023 598 79.7743 598H81.0903V596.95H79.8443C79.5503 596.95 79.3403 596.894 79.2283 596.768C79.1163 596.642 79.0603 596.432 79.0603 596.124V591.91H80.8663V590.86H79.0603V588.858H77.9123V590.86H76.6243V591.91H77.9123ZM87.507 591.56C86.975 591.042 86.275 590.776 85.407 590.776C84.847 590.776 84.371 590.902 83.979 591.126C83.587 591.364 83.279 591.672 83.055 592.036V588.2H81.907V598H83.055V594.43C83.055 593.632 83.237 593.002 83.629 592.526C84.021 592.064 84.539 591.826 85.211 591.826C85.827 591.826 86.317 592.022 86.653 592.414C86.989 592.806 87.157 593.366 87.157 594.094V598H88.305V594.024C88.305 592.904 88.039 592.092 87.507 591.56ZM89.8524 591.49C89.6984 591.63 89.6284 591.826 89.6284 592.05C89.6284 592.288 89.6984 592.484 89.8524 592.624C89.9924 592.764 90.1884 592.834 90.4264 592.834C90.6504 592.834 90.8464 592.764 91.0004 592.624C91.1404 592.484 91.2244 592.288 91.2244 592.05C91.2244 591.826 91.1404 591.63 91.0004 591.49C90.8464 591.35 90.6504 591.266 90.4264 591.266C90.1884 591.266 89.9924 591.35 89.8524 591.49ZM89.8524 596.74C89.6984 596.88 89.6284 597.076 89.6284 597.3C89.6284 597.538 89.6984 597.734 89.8524 597.874C89.9924 598.014 90.1884 598.084 90.4264 598.084C90.6504 598.084 90.8464 598.014 91.0004 597.874C91.1404 597.734 91.2244 597.538 91.2244 597.3C91.2244 597.076 91.1404 596.88 91.0004 596.74C90.8464 596.6 90.6504 596.516 90.4264 596.516C90.1884 596.516 89.9924 596.6 89.8524 596.74ZM53.462 611.716C53.056 611.324 52.538 611.058 51.908 610.904C52.482 610.764 52.944 610.512 53.294 610.148C53.644 609.784 53.826 609.322 53.826 608.734C53.826 607.95 53.504 607.306 52.874 606.83C52.244 606.354 51.362 606.116 50.242 606.116C49.164 606.116 48.31 606.396 47.666 606.928C47.022 607.474 46.7 608.216 46.7 609.154H48.674C48.674 608.706 48.842 608.356 49.15 608.09C49.458 607.838 49.85 607.698 50.326 607.698C50.76 607.698 51.11 607.81 51.39 608.02C51.656 608.244 51.796 608.538 51.796 608.916C51.796 609.322 51.642 609.644 51.348 609.882C51.054 610.12 50.634 610.232 50.102 610.232H49.248V611.842H50.214C50.788 611.842 51.236 611.954 51.544 612.178C51.852 612.402 52.006 612.71 52.006 613.102C52.006 613.536 51.838 613.872 51.53 614.124C51.222 614.376 50.83 614.502 50.354 614.502C49.794 614.502 49.346 614.348 48.996 614.026C48.632 613.718 48.45 613.284 48.45 612.738H46.448C46.448 613.788 46.784 614.614 47.47 615.202C48.142 615.79 49.066 616.084 50.242 616.084C50.998 616.084 51.67 615.972 52.258 615.734C52.832 615.51 53.28 615.174 53.588 614.754C53.896 614.334 54.064 613.83 54.064 613.27C54.064 612.626 53.854 612.108 53.462 611.716ZM69.2456 609.49C68.7556 608.986 68.1256 608.72 67.3556 608.72C66.8096 608.72 66.3196 608.832 65.8996 609.042C65.4796 609.252 65.1296 609.546 64.8776 609.938C64.4716 609.126 63.7576 608.72 62.7356 608.72C62.2316 608.734 61.8116 608.818 61.4756 608.986C61.1396 609.154 60.8456 609.392 60.6076 609.7L60.4256 608.804H58.7036V616.014H60.6776V612.08C60.6776 611.548 60.8036 611.128 61.0556 610.82C61.3076 610.512 61.6576 610.344 62.0916 610.344C62.9316 610.344 63.3516 610.89 63.3516 611.982V616.014H65.3256V612.066C65.3256 611.534 65.4516 611.114 65.7176 610.806C65.9696 610.498 66.3196 610.344 66.7536 610.344C67.5796 610.344 67.9996 610.89 67.9996 611.982V616.014H69.9736V612.052C69.9736 610.862 69.7216 610.008 69.2456 609.49ZM72.7253 615.636C73.2993 615.944 73.9713 616.084 74.7273 616.084C75.4833 616.084 76.1413 615.944 76.7153 615.636C77.2893 615.328 77.7373 614.908 78.0453 614.348C78.3533 613.788 78.5213 613.144 78.5213 612.402C78.5213 611.674 78.3533 611.03 78.0453 610.47C77.7373 609.91 77.2893 609.49 76.7153 609.182C76.1413 608.874 75.4833 608.72 74.7273 608.72C73.9713 608.72 73.2993 608.874 72.7253 609.182C72.1513 609.49 71.7033 609.91 71.3953 610.47C71.0873 611.03 70.9333 611.674 70.9333 612.402C70.9333 613.13 71.0873 613.774 71.3953 614.334C71.7033 614.894 72.1513 615.328 72.7253 615.636ZM76.0293 613.9C75.7073 614.292 75.2733 614.474 74.7273 614.474C74.1813 614.474 73.7473 614.292 73.4253 613.9C73.1033 613.522 72.9493 613.018 72.9493 612.402C72.9493 611.786 73.1033 611.296 73.4253 610.904C73.7473 610.526 74.1813 610.33 74.7273 610.33C75.2733 610.33 75.7073 610.526 76.0293 610.904C76.3513 611.296 76.5193 611.786 76.5193 612.402C76.5193 613.018 76.3513 613.522 76.0293 613.9ZM85.8099 609.504C85.2639 608.986 84.5779 608.72 83.7379 608.72C83.2059 608.72 82.7719 608.818 82.4219 608.986C82.0579 609.154 81.7639 609.392 81.5119 609.7L81.3299 608.804H79.6079V616H81.5819V612.318C81.5819 611.702 81.7219 611.212 82.0019 610.862C82.2819 610.526 82.6739 610.344 83.1919 610.344C84.1579 610.344 84.6479 610.974 84.6479 612.206V616H86.6219V612.094C86.6219 610.89 86.3419 610.036 85.8099 609.504ZM88.3277 610.47V613.942C88.3277 615.314 89.0137 616 90.3857 616H92.0237V614.334H91.0017C90.7497 614.334 90.5677 614.278 90.4557 614.166C90.3437 614.054 90.3017 613.872 90.3017 613.62V610.47H91.9397V608.804H90.3017V606.788H88.3277V608.804H87.1377V610.47H88.3277ZM99.0439 609.504C98.4979 608.986 97.7979 608.72 96.9579 608.72C96.0619 608.72 95.3619 609.042 94.8299 609.686V606.2H92.8559V616H94.8299V612.304C94.8299 611.688 94.9699 611.212 95.2499 610.862C95.5299 610.526 95.9359 610.344 96.4399 610.344C96.9159 610.344 97.2799 610.512 97.5319 610.82C97.7699 611.128 97.8959 611.59 97.8959 612.178V616H99.8699V612.094C99.8699 610.89 99.5899 610.036 99.0439 609.504ZM102.724 613.606H100.848C100.876 614.376 101.212 614.978 101.842 615.426C102.458 615.874 103.27 616.084 104.278 616.084C104.922 616.084 105.482 616 105.972 615.804C106.462 615.608 106.84 615.342 107.12 614.978C107.4 614.628 107.54 614.222 107.54 613.746C107.54 613.018 107.274 612.5 106.756 612.192C106.238 611.884 105.496 611.674 104.53 611.562C104.068 611.52 103.746 611.478 103.55 611.436C103.354 611.408 103.186 611.338 103.074 611.254C102.948 611.17 102.892 611.044 102.892 610.876C102.892 610.652 103.004 610.456 103.228 610.316C103.452 610.176 103.76 610.106 104.138 610.106C104.53 610.106 104.866 610.204 105.118 610.372C105.37 610.54 105.524 610.764 105.552 611.03H107.428C107.372 610.302 107.05 609.742 106.448 609.322C105.846 608.916 105.062 608.706 104.082 608.692C103.466 608.692 102.934 608.79 102.472 608.986C101.996 609.182 101.632 609.462 101.38 609.826C101.128 610.19 101.002 610.596 101.002 611.058C101.002 611.534 101.128 611.898 101.38 612.178C101.632 612.458 101.968 612.668 102.388 612.794C102.808 612.934 103.326 613.032 103.97 613.116C104.432 613.172 104.768 613.228 104.978 613.27C105.174 613.312 105.342 613.382 105.454 613.466C105.566 613.564 105.622 613.704 105.622 613.886C105.622 614.138 105.496 614.334 105.258 614.474C105.006 614.614 104.684 614.67 104.264 614.67C103.816 614.67 103.466 614.572 103.186 614.376C102.906 614.18 102.752 613.928 102.724 613.606Z" fill="white"/>
<path d="M140.952 598H146.636V596.88H142.17V588.2H140.952V598ZM154.298 596.95H153.948C153.626 596.95 153.472 596.782 153.472 596.432V593.352C153.472 592.526 153.22 591.896 152.716 591.448C152.212 591 151.512 590.776 150.602 590.776C149.734 590.776 149.034 590.972 148.502 591.364C147.97 591.756 147.662 592.302 147.578 593.002H148.726C148.796 592.638 148.992 592.358 149.314 592.134C149.636 591.91 150.042 591.798 150.546 591.798C151.106 591.798 151.54 591.938 151.848 592.19C152.156 592.456 152.324 592.82 152.324 593.282V593.772H150.224C149.286 593.772 148.572 593.968 148.082 594.346C147.592 594.738 147.354 595.284 147.354 595.998C147.354 596.642 147.592 597.16 148.068 597.524C148.544 597.902 149.188 598.084 149.986 598.084C151.022 598.084 151.82 597.692 152.38 596.894C152.38 597.258 152.492 597.538 152.688 597.72C152.884 597.916 153.206 598 153.668 598H154.298V596.95ZM152.324 594.738V595.088C152.324 595.704 152.114 596.194 151.722 596.558C151.316 596.922 150.77 597.104 150.07 597.104C149.594 597.104 149.216 597.006 148.936 596.782C148.656 596.572 148.516 596.292 148.516 595.928C148.516 595.144 149.048 594.738 150.112 594.738H152.324ZM160.766 591.56C160.234 591.042 159.548 590.776 158.68 590.776C157.644 590.776 156.86 591.126 156.328 591.826L156.174 590.86H155.18V598H156.328V594.43C156.328 593.632 156.51 593.002 156.902 592.526C157.28 592.064 157.812 591.826 158.484 591.826C159.1 591.826 159.576 592.022 159.912 592.414C160.248 592.806 160.416 593.366 160.416 594.094V598H161.564V594.024C161.564 592.904 161.298 592.092 160.766 591.56ZM169.804 590.86H168.81L168.656 592.092C168.418 591.672 168.096 591.35 167.69 591.126C167.27 590.902 166.78 590.776 166.206 590.776C165.548 590.776 164.96 590.93 164.442 591.238C163.91 591.546 163.504 591.98 163.21 592.526C162.916 593.086 162.776 593.716 162.776 594.43C162.776 595.186 162.916 595.844 163.21 596.39C163.504 596.95 163.91 597.37 164.428 597.65C164.946 597.944 165.534 598.084 166.206 598.084C167.326 598.084 168.138 597.65 168.656 596.768V597.608C168.656 599.12 167.886 599.862 166.346 599.862C165.744 599.862 165.254 599.75 164.876 599.498C164.484 599.26 164.246 598.91 164.162 598.462H162.986C163.07 599.246 163.406 599.834 163.994 600.254C164.582 600.674 165.338 600.884 166.262 600.884C168.614 600.884 169.804 599.806 169.804 597.65V590.86ZM167.536 596.74C167.172 596.964 166.766 597.062 166.318 597.062C165.604 597.062 165.03 596.824 164.596 596.334C164.162 595.844 163.952 595.214 163.952 594.43C163.952 593.66 164.162 593.03 164.596 592.54C165.03 592.05 165.604 591.798 166.318 591.798C166.766 591.798 167.172 591.91 167.536 592.134C167.9 592.358 168.18 592.68 168.376 593.086C168.572 593.492 168.67 593.954 168.67 594.458C168.67 594.962 168.572 595.424 168.376 595.816C168.18 596.208 167.9 596.516 167.536 596.74ZM177.514 590.86H176.366V594.43C176.366 595.242 176.17 595.872 175.806 596.334C175.442 596.81 174.924 597.034 174.28 597.034C173.678 597.034 173.216 596.852 172.894 596.46C172.572 596.068 172.418 595.508 172.418 594.766V590.86H171.27V594.836C171.27 595.956 171.522 596.782 172.04 597.3C172.544 597.832 173.23 598.084 174.084 598.084C175.064 598.084 175.82 597.748 176.366 597.048L176.52 598H177.514V590.86ZM185.757 596.95H185.407C185.085 596.95 184.931 596.782 184.931 596.432V593.352C184.931 592.526 184.679 591.896 184.175 591.448C183.671 591 182.971 590.776 182.061 590.776C181.193 590.776 180.493 590.972 179.961 591.364C179.429 591.756 179.121 592.302 179.037 593.002H180.185C180.255 592.638 180.451 592.358 180.773 592.134C181.095 591.91 181.501 591.798 182.005 591.798C182.565 591.798 182.999 591.938 183.307 592.19C183.615 592.456 183.783 592.82 183.783 593.282V593.772H181.683C180.745 593.772 180.031 593.968 179.541 594.346C179.051 594.738 178.813 595.284 178.813 595.998C178.813 596.642 179.051 597.16 179.527 597.524C180.003 597.902 180.647 598.084 181.445 598.084C182.481 598.084 183.279 597.692 183.839 596.894C183.839 597.258 183.951 597.538 184.147 597.72C184.343 597.916 184.665 598 185.127 598H185.757V596.95ZM183.783 594.738V595.088C183.783 595.704 183.573 596.194 183.181 596.558C182.775 596.922 182.229 597.104 181.529 597.104C181.053 597.104 180.675 597.006 180.395 596.782C180.115 596.572 179.975 596.292 179.975 595.928C179.975 595.144 180.507 594.738 181.571 594.738H183.783ZM193.415 590.86H192.421L192.267 592.092C192.029 591.672 191.707 591.35 191.301 591.126C190.881 590.902 190.391 590.776 189.817 590.776C189.159 590.776 188.571 590.93 188.053 591.238C187.521 591.546 187.115 591.98 186.821 592.526C186.527 593.086 186.387 593.716 186.387 594.43C186.387 595.186 186.527 595.844 186.821 596.39C187.115 596.95 187.521 597.37 188.039 597.65C188.557 597.944 189.145 598.084 189.817 598.084C190.937 598.084 191.749 597.65 192.267 596.768V597.608C192.267 599.12 191.497 599.862 189.957 599.862C189.355 599.862 188.865 599.75 188.487 599.498C188.095 599.26 187.857 598.91 187.773 598.462H186.597C186.681 599.246 187.017 599.834 187.605 600.254C188.193 600.674 188.949 600.884 189.873 600.884C192.225 600.884 193.415 599.806 193.415 597.65V590.86ZM191.147 596.74C190.783 596.964 190.377 597.062 189.929 597.062C189.215 597.062 188.641 596.824 188.207 596.334C187.773 595.844 187.563 595.214 187.563 594.43C187.563 593.66 187.773 593.03 188.207 592.54C188.641 592.05 189.215 591.798 189.929 591.798C190.377 591.798 190.783 591.91 191.147 592.134C191.511 592.358 191.791 592.68 191.987 593.086C192.183 593.492 192.281 593.954 192.281 594.458C192.281 594.962 192.183 595.424 191.987 595.816C191.791 596.208 191.511 596.516 191.147 596.74ZM195.147 592.512C194.867 593.072 194.727 593.702 194.727 594.43C194.727 595.158 194.867 595.788 195.161 596.348C195.455 596.908 195.875 597.328 196.407 597.636C196.939 597.944 197.555 598.084 198.269 598.084C199.081 598.084 199.767 597.86 200.327 597.398C200.887 596.936 201.237 596.334 201.377 595.606H200.215C200.089 596.068 199.851 596.432 199.487 596.684C199.123 596.936 198.689 597.062 198.185 597.062C197.513 597.062 196.981 596.852 196.575 596.432C196.155 596.012 195.945 595.452 195.931 594.752V594.654H201.475C201.489 594.43 201.503 594.276 201.503 594.164C201.475 593.478 201.321 592.876 201.041 592.358C200.747 591.854 200.355 591.462 199.851 591.182C199.347 590.916 198.759 590.776 198.115 590.776C197.443 590.776 196.855 590.93 196.351 591.238C195.833 591.546 195.427 591.966 195.147 592.512ZM200.313 593.702H196.001C196.057 593.142 196.281 592.68 196.701 592.316C197.107 591.966 197.583 591.784 198.129 591.784C198.731 591.784 199.235 591.952 199.627 592.288C200.019 592.624 200.257 593.1 200.313 593.702ZM202.897 591.49C202.743 591.63 202.673 591.826 202.673 592.05C202.673 592.288 202.743 592.484 202.897 592.624C203.037 592.764 203.233 592.834 203.471 592.834C203.695 592.834 203.891 592.764 204.045 592.624C204.185 592.484 204.269 592.288 204.269 592.05C204.269 591.826 204.185 591.63 204.045 591.49C203.891 591.35 203.695 591.266 203.471 591.266C203.233 591.266 203.037 591.35 202.897 591.49ZM202.897 596.74C202.743 596.88 202.673 597.076 202.673 597.3C202.673 597.538 202.743 597.734 202.897 597.874C203.037 598.014 203.233 598.084 203.471 598.084C203.695 598.084 203.891 598.014 204.045 597.874C204.185 597.734 204.269 597.538 204.269 597.3C204.269 597.076 204.185 596.88 204.045 596.74C203.891 596.6 203.695 596.516 203.471 596.516C203.233 596.516 203.037 596.6 202.897 596.74ZM140.84 606.2V616H147.574V614.194H142.94V611.926H146.58V610.204H142.94V608.006H147.42V606.2H140.84ZM154.886 609.504C154.34 608.986 153.654 608.72 152.814 608.72C152.282 608.72 151.848 608.818 151.498 608.986C151.134 609.154 150.84 609.392 150.588 609.7L150.406 608.804H148.684V616H150.658V612.318C150.658 611.702 150.798 611.212 151.078 610.862C151.358 610.526 151.75 610.344 152.268 610.344C153.234 610.344 153.724 610.974 153.724 612.206V616H155.698V612.094C155.698 610.89 155.418 610.036 154.886 609.504ZM164.138 608.804H162.402L162.234 609.798C161.674 609.07 160.932 608.706 159.994 608.706C159.35 608.706 158.776 608.86 158.272 609.154C157.768 609.462 157.362 609.882 157.082 610.428C156.802 610.988 156.662 611.618 156.662 612.332C156.662 613.06 156.802 613.704 157.082 614.25C157.362 614.796 157.768 615.216 158.272 615.51C158.776 615.818 159.336 615.958 159.98 615.958C160.932 615.958 161.674 615.636 162.206 614.964V615.72C162.206 616.28 162.052 616.686 161.744 616.966C161.436 617.246 161.002 617.386 160.442 617.386C159.994 617.386 159.63 617.302 159.35 617.106C159.07 616.924 158.888 616.658 158.804 616.308H156.816C156.858 617.134 157.194 617.764 157.824 618.212C158.44 618.66 159.266 618.884 160.288 618.884C161.604 618.884 162.57 618.604 163.2 618.044C163.816 617.484 164.138 616.742 164.138 615.79V608.804ZM161.716 613.816C161.394 614.194 160.974 614.376 160.442 614.376C159.91 614.376 159.476 614.194 159.154 613.816C158.832 613.452 158.678 612.962 158.678 612.346C158.678 611.744 158.832 611.254 159.154 610.876C159.476 610.498 159.91 610.302 160.442 610.302C160.974 610.302 161.394 610.498 161.716 610.876C162.024 611.268 162.192 611.758 162.192 612.36C162.192 612.962 162.024 613.452 161.716 613.816ZM165.514 606.2V616H167.488V606.2H165.514ZM170.67 606.13C170.446 605.92 170.18 605.808 169.858 605.808C169.522 605.808 169.256 605.92 169.032 606.13C168.808 606.34 168.71 606.606 168.71 606.914C168.71 607.236 168.808 607.502 169.032 607.712C169.256 607.936 169.522 608.034 169.858 608.034C170.18 608.034 170.446 607.936 170.67 607.712C170.88 607.502 170.992 607.236 170.992 606.914C170.992 606.606 170.88 606.34 170.67 606.13ZM168.864 608.804V616H170.838V608.804H168.864ZM173.823 613.606H171.947C171.975 614.376 172.311 614.978 172.941 615.426C173.557 615.874 174.369 616.084 175.377 616.084C176.021 616.084 176.581 616 177.071 615.804C177.561 615.608 177.939 615.342 178.219 614.978C178.499 614.628 178.639 614.222 178.639 613.746C178.639 613.018 178.373 612.5 177.855 612.192C177.337 611.884 176.595 611.674 175.629 611.562C175.167 611.52 174.845 611.478 174.649 611.436C174.453 611.408 174.285 611.338 174.173 611.254C174.047 611.17 173.991 611.044 173.991 610.876C173.991 610.652 174.103 610.456 174.327 610.316C174.551 610.176 174.859 610.106 175.237 610.106C175.629 610.106 175.965 610.204 176.217 610.372C176.469 610.54 176.623 610.764 176.651 611.03H178.527C178.471 610.302 178.149 609.742 177.547 609.322C176.945 608.916 176.161 608.706 175.181 608.692C174.565 608.692 174.033 608.79 173.571 608.986C173.095 609.182 172.731 609.462 172.479 609.826C172.227 610.19 172.101 610.596 172.101 611.058C172.101 611.534 172.227 611.898 172.479 612.178C172.731 612.458 173.067 612.668 173.487 612.794C173.907 612.934 174.425 613.032 175.069 613.116C175.531 613.172 175.867 613.228 176.077 613.27C176.273 613.312 176.441 613.382 176.553 613.466C176.665 613.564 176.721 613.704 176.721 613.886C176.721 614.138 176.595 614.334 176.357 614.474C176.105 614.614 175.783 614.67 175.363 614.67C174.915 614.67 174.565 614.572 174.285 614.376C174.005 614.18 173.851 613.928 173.823 613.606ZM185.962 609.504C185.416 608.986 184.716 608.72 183.876 608.72C182.98 608.72 182.28 609.042 181.748 609.686V606.2H179.774V616H181.748V612.304C181.748 611.688 181.888 611.212 182.168 610.862C182.448 610.526 182.854 610.344 183.358 610.344C183.834 610.344 184.198 610.512 184.45 610.82C184.688 611.128 184.814 611.59 184.814 612.178V616H186.788V612.094C186.788 610.89 186.508 610.036 185.962 609.504Z" fill="white"/>
<path d="M238.162 590.496C237.77 591.252 237.588 592.12 237.588 593.1C237.588 594.094 237.77 594.962 238.162 595.718C238.54 596.474 239.086 597.048 239.8 597.468C240.5 597.888 241.326 598.084 242.264 598.084C243.356 598.084 244.252 597.79 244.98 597.202C245.708 596.614 246.156 595.816 246.352 594.794H245.134C244.938 595.494 244.602 596.026 244.098 596.404C243.594 596.782 242.964 596.964 242.208 596.964C241.536 596.964 240.934 596.81 240.43 596.474C239.912 596.152 239.52 595.69 239.24 595.102C238.96 594.514 238.834 593.856 238.834 593.1C238.834 592.344 238.96 591.686 239.24 591.098C239.52 590.51 239.912 590.062 240.43 589.726C240.934 589.404 241.536 589.236 242.208 589.236C242.95 589.236 243.58 589.432 244.098 589.81C244.616 590.202 244.966 590.734 245.148 591.406H246.366C246.17 590.398 245.708 589.586 244.98 588.998C244.252 588.41 243.342 588.116 242.264 588.116C241.326 588.116 240.5 588.326 239.8 588.746C239.086 589.166 238.54 589.74 238.162 590.496ZM249.165 597.622C249.697 597.93 250.313 598.084 251.013 598.084C251.699 598.084 252.315 597.93 252.847 597.622C253.379 597.314 253.799 596.894 254.107 596.334C254.401 595.788 254.555 595.158 254.555 594.43C254.555 593.716 254.401 593.086 254.107 592.526C253.799 591.98 253.379 591.546 252.847 591.238C252.315 590.93 251.699 590.776 251.013 590.776C250.313 590.776 249.697 590.93 249.165 591.238C248.633 591.546 248.213 591.98 247.919 592.526C247.611 593.086 247.471 593.716 247.471 594.43C247.471 595.158 247.611 595.788 247.919 596.334C248.213 596.894 248.633 597.314 249.165 597.622ZM252.245 596.726C251.881 596.95 251.475 597.062 251.013 597.062C250.537 597.062 250.131 596.95 249.767 596.726C249.403 596.502 249.137 596.194 248.941 595.788C248.745 595.396 248.647 594.934 248.647 594.43C248.647 593.926 248.745 593.478 248.941 593.072C249.137 592.68 249.403 592.358 249.767 592.134C250.131 591.91 250.537 591.798 251.013 591.798C251.475 591.798 251.881 591.91 252.245 592.134C252.609 592.358 252.889 592.68 253.085 593.072C253.281 593.478 253.379 593.926 253.379 594.43C253.379 594.934 253.281 595.396 253.085 595.788C252.889 596.194 252.609 596.502 252.245 596.726ZM265.784 591.532C265.28 591.028 264.636 590.776 263.838 590.776C262.69 590.776 261.864 591.238 261.36 592.134C261.164 591.686 260.856 591.35 260.464 591.126C260.072 590.902 259.61 590.776 259.106 590.776C258.224 590.776 257.524 591.14 257.02 591.84L256.866 590.86H255.872V598H257.02V594.234C257.02 593.52 257.188 592.946 257.524 592.498C257.86 592.05 258.322 591.826 258.91 591.826C259.456 591.826 259.876 592.008 260.184 592.372C260.478 592.736 260.632 593.268 260.632 593.954V598H261.78V594.178C261.78 593.45 261.948 592.876 262.284 592.456C262.62 592.036 263.096 591.826 263.698 591.826C264.23 591.826 264.65 592.008 264.944 592.372C265.238 592.736 265.392 593.268 265.392 593.954V598H266.54V593.884C266.54 592.82 266.288 592.036 265.784 591.532ZM277.925 591.532C277.421 591.028 276.777 590.776 275.979 590.776C274.831 590.776 274.005 591.238 273.501 592.134C273.305 591.686 272.997 591.35 272.605 591.126C272.213 590.902 271.751 590.776 271.247 590.776C270.365 590.776 269.665 591.14 269.161 591.84L269.007 590.86H268.013V598H269.161V594.234C269.161 593.52 269.329 592.946 269.665 592.498C270.001 592.05 270.463 591.826 271.051 591.826C271.597 591.826 272.017 592.008 272.325 592.372C272.619 592.736 272.773 593.268 272.773 593.954V598H273.921V594.178C273.921 593.45 274.089 592.876 274.425 592.456C274.761 592.036 275.237 591.826 275.839 591.826C276.371 591.826 276.791 592.008 277.085 592.372C277.379 592.736 277.533 593.268 277.533 593.954V598H278.681V593.884C278.681 592.82 278.429 592.036 277.925 591.532ZM281.259 588.312C281.119 588.172 280.937 588.102 280.727 588.102C280.503 588.102 280.335 588.172 280.195 588.312C280.055 588.452 279.985 588.634 279.985 588.844C279.985 589.068 280.055 589.236 280.195 589.376C280.335 589.516 280.503 589.586 280.727 589.586C280.937 589.586 281.119 589.516 281.259 589.376C281.399 589.236 281.469 589.068 281.469 588.844C281.469 588.634 281.399 588.452 281.259 588.312ZM280.153 590.86V598H281.301V590.86H280.153ZM283.35 591.91V596.138C283.35 596.782 283.49 597.258 283.77 597.552C284.05 597.86 284.54 598 285.212 598H286.528V596.95H285.282C284.988 596.95 284.778 596.894 284.666 596.768C284.554 596.642 284.498 596.432 284.498 596.124V591.91H286.304V590.86H284.498V588.858H283.35V590.86H282.062V591.91H283.35ZM297.257 591.532C296.753 591.028 296.109 590.776 295.311 590.776C294.163 590.776 293.337 591.238 292.833 592.134C292.637 591.686 292.329 591.35 291.937 591.126C291.545 590.902 291.083 590.776 290.579 590.776C289.697 590.776 288.997 591.14 288.493 591.84L288.339 590.86H287.345V598H288.493V594.234C288.493 593.52 288.661 592.946 288.997 592.498C289.333 592.05 289.795 591.826 290.383 591.826C290.929 591.826 291.349 592.008 291.657 592.372C291.951 592.736 292.105 593.268 292.105 593.954V598H293.253V594.178C293.253 593.45 293.421 592.876 293.757 592.456C294.093 592.036 294.569 591.826 295.171 591.826C295.703 591.826 296.123 592.008 296.417 592.372C296.711 592.736 296.865 593.268 296.865 593.954V598H298.013V593.884C298.013 592.82 297.761 592.036 297.257 591.532ZM299.653 592.512C299.373 593.072 299.233 593.702 299.233 594.43C299.233 595.158 299.373 595.788 299.667 596.348C299.961 596.908 300.381 597.328 300.913 597.636C301.445 597.944 302.061 598.084 302.775 598.084C303.587 598.084 304.273 597.86 304.833 597.398C305.393 596.936 305.743 596.334 305.883 595.606H304.721C304.595 596.068 304.357 596.432 303.993 596.684C303.629 596.936 303.195 597.062 302.691 597.062C302.019 597.062 301.487 596.852 301.081 596.432C300.661 596.012 300.451 595.452 300.437 594.752V594.654H305.981C305.995 594.43 306.009 594.276 306.009 594.164C305.981 593.478 305.827 592.876 305.547 592.358C305.253 591.854 304.861 591.462 304.357 591.182C303.853 590.916 303.265 590.776 302.621 590.776C301.949 590.776 301.361 590.93 300.857 591.238C300.339 591.546 299.933 591.966 299.653 592.512ZM304.819 593.702H300.507C300.563 593.142 300.787 592.68 301.207 592.316C301.613 591.966 302.089 591.784 302.635 591.784C303.237 591.784 303.741 591.952 304.133 592.288C304.525 592.624 304.763 593.1 304.819 593.702ZM312.905 591.56C312.373 591.042 311.687 590.776 310.819 590.776C309.783 590.776 308.999 591.126 308.467 591.826L308.313 590.86H307.319V598H308.467V594.43C308.467 593.632 308.649 593.002 309.041 592.526C309.419 592.064 309.951 591.826 310.623 591.826C311.239 591.826 311.715 592.022 312.051 592.414C312.387 592.806 312.555 593.366 312.555 594.094V598H313.703V594.024C313.703 592.904 313.437 592.092 312.905 591.56ZM315.643 591.91V596.138C315.643 596.782 315.783 597.258 316.063 597.552C316.343 597.86 316.833 598 317.505 598H318.821V596.95H317.575C317.281 596.95 317.071 596.894 316.959 596.768C316.847 596.642 316.791 596.432 316.791 596.124V591.91H318.597V590.86H316.791V588.858H315.643V590.86H314.355V591.91H315.643ZM319.722 591.49C319.568 591.63 319.498 591.826 319.498 592.05C319.498 592.288 319.568 592.484 319.722 592.624C319.862 592.764 320.058 592.834 320.296 592.834C320.52 592.834 320.716 592.764 320.87 592.624C321.01 592.484 321.094 592.288 321.094 592.05C321.094 591.826 321.01 591.63 320.87 591.49C320.716 591.35 320.52 591.266 320.296 591.266C320.058 591.266 319.862 591.35 319.722 591.49ZM319.722 596.74C319.568 596.88 319.498 597.076 319.498 597.3C319.498 597.538 319.568 597.734 319.722 597.874C319.862 598.014 320.058 598.084 320.296 598.084C320.52 598.084 320.716 598.014 320.87 597.874C321.01 597.734 321.094 597.538 321.094 597.3C321.094 597.076 321.01 596.88 320.87 596.74C320.716 596.6 320.52 596.516 320.296 596.516C320.058 596.516 319.862 596.6 319.722 596.74ZM237.154 606.2V607.908H242.124L237.84 616H240.024L244.336 607.502V606.2H237.154ZM244.191 612.822H249.091V611.226H244.191V612.822ZM253.644 606.2H251.67V607.152C251.67 607.432 251.6 607.67 251.474 607.866C251.348 608.062 251.166 608.146 250.928 608.146H249.458V609.812H251.096C251.32 609.812 251.502 609.798 251.628 609.742V616H253.644V606.2ZM255.004 610.876V611.324C255.004 612.304 255.172 613.158 255.508 613.872C255.844 614.586 256.32 615.132 256.936 615.51C257.538 615.902 258.238 616.084 259.036 616.084C259.82 616.084 260.52 615.902 261.136 615.51C261.752 615.132 262.228 614.586 262.564 613.872C262.9 613.158 263.082 612.304 263.082 611.324V610.876C263.082 609.924 262.9 609.084 262.564 608.356C262.228 607.642 261.752 607.096 261.136 606.704C260.52 606.312 259.82 606.116 259.036 606.116C258.252 606.116 257.552 606.312 256.936 606.704C256.32 607.096 255.844 607.642 255.508 608.356C255.172 609.084 255.004 609.924 255.004 610.876ZM260.506 608.65C260.87 609.196 261.066 609.966 261.066 610.946V611.254C261.066 612.248 260.87 613.018 260.506 613.564C260.142 614.11 259.652 614.376 259.036 614.376C258.42 614.376 257.93 614.11 257.566 613.564C257.202 613.018 257.02 612.248 257.02 611.254V610.946C257.02 609.966 257.202 609.196 257.566 608.65C257.93 608.104 258.42 607.824 259.036 607.824C259.652 607.824 260.142 608.104 260.506 608.65ZM273.911 609.504C273.365 608.986 272.665 608.72 271.825 608.72C270.929 608.72 270.229 609.042 269.697 609.686V606.2H267.723V616H269.697V612.304C269.697 611.688 269.837 611.212 270.117 610.862C270.397 610.526 270.803 610.344 271.307 610.344C271.783 610.344 272.147 610.512 272.399 610.82C272.637 611.128 272.763 611.59 272.763 612.178V616H274.737V612.094C274.737 610.89 274.457 610.036 273.911 609.504ZM277.493 615.636C278.067 615.944 278.739 616.084 279.495 616.084C280.251 616.084 280.909 615.944 281.483 615.636C282.057 615.328 282.505 614.908 282.813 614.348C283.121 613.788 283.289 613.144 283.289 612.402C283.289 611.674 283.121 611.03 282.813 610.47C282.505 609.91 282.057 609.49 281.483 609.182C280.909 608.874 280.251 608.72 279.495 608.72C278.739 608.72 278.067 608.874 277.493 609.182C276.919 609.49 276.471 609.91 276.163 610.47C275.855 611.03 275.701 611.674 275.701 612.402C275.701 613.13 275.855 613.774 276.163 614.334C276.471 614.894 276.919 615.328 277.493 615.636ZM280.797 613.9C280.475 614.292 280.041 614.474 279.495 614.474C278.949 614.474 278.515 614.292 278.193 613.9C277.871 613.522 277.717 613.018 277.717 612.402C277.717 611.786 277.871 611.296 278.193 610.904C278.515 610.526 278.949 610.33 279.495 610.33C280.041 610.33 280.475 610.526 280.797 610.904C281.119 611.296 281.287 611.786 281.287 612.402C281.287 613.018 281.119 613.522 280.797 613.9ZM291.151 608.804H289.177V612.346C289.177 613.018 289.037 613.536 288.771 613.9C288.491 614.264 288.113 614.446 287.623 614.446C287.147 614.446 286.783 614.292 286.559 613.956C286.335 613.62 286.223 613.13 286.223 612.472V608.804H284.249V612.71C284.249 613.928 284.515 614.796 285.047 615.314C285.579 615.832 286.265 616.084 287.105 616.084C287.581 616.084 288.001 616 288.337 615.832C288.673 615.664 288.967 615.44 289.219 615.132L289.401 616H291.151V608.804ZM296.906 608.804H296.57C296.038 608.804 295.604 608.902 295.296 609.084C294.974 609.266 294.708 609.532 294.498 609.882L294.316 608.804H292.524V616H294.498V612.472C294.498 611.898 294.624 611.436 294.89 611.1C295.142 610.764 295.562 610.596 296.122 610.596H296.906V608.804ZM299.261 613.606H297.385C297.413 614.376 297.749 614.978 298.379 615.426C298.995 615.874 299.807 616.084 300.815 616.084C301.459 616.084 302.019 616 302.509 615.804C302.999 615.608 303.377 615.342 303.657 614.978C303.937 614.628 304.077 614.222 304.077 613.746C304.077 613.018 303.811 612.5 303.293 612.192C302.775 611.884 302.033 611.674 301.067 611.562C300.605 611.52 300.283 611.478 300.087 611.436C299.891 611.408 299.723 611.338 299.611 611.254C299.485 611.17 299.429 611.044 299.429 610.876C299.429 610.652 299.541 610.456 299.765 610.316C299.989 610.176 300.297 610.106 300.675 610.106C301.067 610.106 301.403 610.204 301.655 610.372C301.907 610.54 302.061 610.764 302.089 611.03H303.965C303.909 610.302 303.587 609.742 302.985 609.322C302.383 608.916 301.599 608.706 300.619 608.692C300.003 608.692 299.471 608.79 299.009 608.986C298.533 609.182 298.169 609.462 297.917 609.826C297.665 610.19 297.539 610.596 297.539 611.058C297.539 611.534 297.665 611.898 297.917 612.178C298.169 612.458 298.505 612.668 298.925 612.794C299.345 612.934 299.863 613.032 300.507 613.116C300.969 613.172 301.305 613.228 301.515 613.27C301.711 613.312 301.879 613.382 301.991 613.466C302.103 613.564 302.159 613.704 302.159 613.886C302.159 614.138 302.033 614.334 301.795 614.474C301.543 614.614 301.221 614.67 300.801 614.67C300.353 614.67 300.003 614.572 299.723 614.376C299.443 614.18 299.289 613.928 299.261 613.606ZM314.55 609.182C314.046 608.874 313.486 608.72 312.842 608.72C312.338 608.72 311.904 608.818 311.526 609.014C311.148 609.21 310.84 609.476 310.602 609.798L310.406 608.804H308.684V618.8H310.658V615.09C311.176 615.762 311.904 616.084 312.828 616.084C313.472 616.084 314.046 615.944 314.55 615.636C315.054 615.328 315.446 614.908 315.726 614.348C316.006 613.802 316.16 613.158 316.16 612.416C316.16 611.688 316.006 611.03 315.726 610.47C315.446 609.91 315.054 609.49 314.55 609.182ZM313.668 613.9C313.332 614.292 312.912 614.474 312.38 614.474C311.848 614.474 311.414 614.292 311.106 613.9C310.784 613.522 310.63 613.018 310.63 612.388C310.63 611.772 310.784 611.282 311.106 610.904C311.414 610.526 311.848 610.33 312.38 610.33C312.912 610.33 313.332 610.526 313.668 610.904C313.99 611.282 314.158 611.772 314.158 612.388C314.158 613.004 313.99 613.508 313.668 613.9ZM317.424 610.47C317.116 611.03 316.976 611.674 316.976 612.416C316.976 613.158 317.13 613.802 317.438 614.362C317.746 614.922 318.194 615.342 318.782 615.636C319.37 615.944 320.056 616.084 320.868 616.084C321.484 616.084 322.03 615.986 322.506 615.762C322.982 615.538 323.36 615.244 323.654 614.852C323.934 614.474 324.116 614.04 324.2 613.564H322.254C322.17 613.9 321.988 614.166 321.722 614.334C321.456 614.502 321.12 614.586 320.728 614.586C320.224 614.586 319.818 614.446 319.538 614.138C319.244 613.844 319.076 613.438 319.034 612.906V612.85H324.256C324.284 612.654 324.312 612.43 324.312 612.178C324.298 611.478 324.13 610.876 323.822 610.358C323.514 609.84 323.08 609.434 322.52 609.154C321.96 608.874 321.33 608.72 320.602 608.72C319.874 608.72 319.244 608.874 318.698 609.182C318.152 609.49 317.732 609.91 317.424 610.47ZM322.338 611.562H319.076C319.132 611.142 319.3 610.82 319.594 610.568C319.888 610.316 320.252 610.19 320.686 610.19C321.134 610.19 321.498 610.316 321.792 610.554C322.086 610.792 322.268 611.128 322.338 611.562ZM329.773 608.804H329.437C328.905 608.804 328.471 608.902 328.163 609.084C327.841 609.266 327.575 609.532 327.365 609.882L327.183 608.804H325.391V616H327.365V612.472C327.365 611.898 327.491 611.436 327.757 611.1C328.009 610.764 328.429 610.596 328.989 610.596H329.773V608.804ZM333.441 608.804L335.793 616H337.893L339.181 611.66L340.441 616H342.541L344.907 608.804H342.891L341.421 613.886L340.105 608.804H338.327L336.969 613.872L335.527 608.804H333.441ZM345.561 610.47C345.253 611.03 345.113 611.674 345.113 612.416C345.113 613.158 345.267 613.802 345.575 614.362C345.883 614.922 346.331 615.342 346.919 615.636C347.507 615.944 348.193 616.084 349.005 616.084C349.621 616.084 350.167 615.986 350.643 615.762C351.119 615.538 351.497 615.244 351.791 614.852C352.071 614.474 352.253 614.04 352.337 613.564H350.391C350.307 613.9 350.125 614.166 349.859 614.334C349.593 614.502 349.257 614.586 348.865 614.586C348.361 614.586 347.955 614.446 347.675 614.138C347.381 613.844 347.213 613.438 347.171 612.906V612.85H352.393C352.421 612.654 352.449 612.43 352.449 612.178C352.435 611.478 352.267 610.876 351.959 610.358C351.651 609.84 351.217 609.434 350.657 609.154C350.097 608.874 349.467 608.72 348.739 608.72C348.011 608.72 347.381 608.874 346.835 609.182C346.289 609.49 345.869 609.91 345.561 610.47ZM350.475 611.562H347.213C347.269 611.142 347.437 610.82 347.731 610.568C348.025 610.316 348.389 610.19 348.823 610.19C349.271 610.19 349.635 610.316 349.929 610.554C350.223 610.792 350.405 611.128 350.475 611.562ZM353.696 610.47C353.388 611.03 353.248 611.674 353.248 612.416C353.248 613.158 353.402 613.802 353.71 614.362C354.018 614.922 354.466 615.342 355.054 615.636C355.642 615.944 356.328 616.084 357.14 616.084C357.756 616.084 358.302 615.986 358.778 615.762C359.254 615.538 359.632 615.244 359.926 614.852C360.206 614.474 360.388 614.04 360.472 613.564H358.526C358.442 613.9 358.26 614.166 357.994 614.334C357.728 614.502 357.392 614.586 357 614.586C356.496 614.586 356.09 614.446 355.81 614.138C355.516 613.844 355.348 613.438 355.306 612.906V612.85H360.528C360.556 612.654 360.584 612.43 360.584 612.178C360.57 611.478 360.402 610.876 360.094 610.358C359.786 609.84 359.352 609.434 358.792 609.154C358.232 608.874 357.602 608.72 356.874 608.72C356.146 608.72 355.516 608.874 354.97 609.182C354.424 609.49 354.004 609.91 353.696 610.47ZM358.61 611.562H355.348C355.404 611.142 355.572 610.82 355.866 610.568C356.16 610.316 356.524 610.19 356.958 610.19C357.406 610.19 357.77 610.316 358.064 610.554C358.358 610.792 358.54 611.128 358.61 611.562ZM361.663 606.2V616H363.637V614.25L364.715 613.088L366.535 616H368.817L366.115 611.618L368.677 608.804H366.465L363.637 611.87V606.2H361.663Z" fill="white"/>
<path d="M813.052 586.312C809.554 582.495 805.276 579.477 800.508 577.46H800.447L637.797 521.892C633.399 519.677 628.598 518.377 623.683 518.071C618.769 517.764 613.843 518.458 609.205 520.109C604.566 521.76 600.31 524.335 596.695 527.677C593.079 531.02 590.179 535.061 588.17 539.557C586.161 544.052 585.084 548.908 585.005 553.831C584.926 558.754 585.846 563.643 587.709 568.2C589.573 572.758 592.341 576.89 595.847 580.347C599.353 583.805 603.524 586.515 608.108 588.315V588.315L608.45 588.43C609.225 588.732 610.01 588.999 610.805 589.245L773.445 645.101C781.118 647.985 789.54 648.196 797.348 645.701C805.156 643.207 811.894 638.151 816.473 631.352C821.052 624.554 823.205 616.409 822.582 608.236C821.96 600.063 818.599 592.338 813.042 586.312H813.052ZM611.972 585.919L609.577 585.094C601.51 581.964 594.993 575.794 591.426 567.91C587.86 560.026 587.528 551.057 590.503 542.932C593.478 534.806 599.522 528.172 607.336 524.455C615.15 520.738 624.111 520.234 632.292 523.053C640.473 525.872 647.222 531.788 651.088 539.529C654.955 547.27 655.63 556.219 652.968 564.453C650.307 572.687 644.522 579.548 636.856 583.562C629.19 587.576 620.255 588.422 611.972 585.919V585.919ZM774.673 641.775L625.684 590.609C632.372 589.853 638.719 587.258 644.02 583.112C649.322 578.966 653.37 573.431 655.716 567.123C658.062 560.815 658.614 553.981 657.31 547.378C656.006 540.776 652.897 534.664 648.329 529.721C648.057 529.43 647.765 529.143 647.488 528.856L799.184 580.686C807.085 584.073 813.347 590.416 816.632 598.36C819.916 606.304 819.962 615.218 816.759 623.195C813.556 631.172 807.359 637.58 799.493 641.047C791.628 644.515 782.717 644.767 774.668 641.75L774.673 641.775Z" fill="#7D0BFE"/>
<path d="M643.855 578.648C639.636 582.532 634.475 585.247 628.883 586.522C623.292 587.797 617.464 587.59 611.977 585.919L609.582 585.094C602.929 582.492 597.304 577.796 593.557 571.714C589.809 565.632 588.143 558.496 588.81 551.384C589.476 544.272 592.44 537.57 597.252 532.291C602.065 527.011 608.465 523.442 615.485 522.122C622.506 520.802 629.765 521.802 636.167 524.973C642.568 528.143 647.764 533.311 650.968 539.695C654.173 546.079 655.213 553.333 653.931 560.361C652.648 567.388 649.113 573.807 643.86 578.648H643.855Z" fill="white"/>
<path d="M808.579 635.188C804.104 639.339 798.559 642.157 792.568 643.325C786.577 644.492 780.379 643.962 774.673 641.795L625.684 590.629C632.372 589.873 638.719 587.278 644.02 583.132C649.322 578.986 653.37 573.451 655.716 567.143C658.062 560.835 658.614 554.001 657.31 547.398C656.005 540.796 652.897 534.684 648.329 529.741C648.057 529.45 647.765 529.163 647.488 528.876L799.184 580.706C804.235 582.865 808.665 586.255 812.071 590.564C815.477 594.874 817.75 599.968 818.684 605.382C819.617 610.795 819.181 616.356 817.415 621.558C815.65 626.759 812.61 631.436 808.574 635.163L808.579 635.188Z" fill="#FFCCEC"/>
<path d="M770.15 93.4533C768.89 90.5658 763.993 89.9078 755.604 91.4863C747.981 92.9178 738.405 96.0608 728.636 100.331C718.868 104.601 710.065 109.501 703.835 114.121C696.979 119.213 694.14 123.252 695.404 126.136C696.219 128.005 698.554 128.936 702.383 128.936C704.699 128.901 707.008 128.666 709.285 128.236L709.309 128.264L709.362 128.219C709.558 128.184 709.75 128.156 709.95 128.114C717.573 126.679 727.149 123.536 736.9 119.266C746.651 114.996 755.474 110.099 761.704 105.479C768.575 100.373 771.413 96.3408 770.15 93.4533ZM735.948 117.019C728.181 120.41 720.548 123.077 713.982 124.719C719.841 120.652 727.688 116.389 736.382 112.591C743.393 109.522 750.638 107.015 758.047 105.094C752.142 109.123 744.414 113.323 735.948 117.019ZM762.754 101.535C754.774 103.047 744.554 106.337 735.388 110.348C724.275 115.206 714.465 120.848 708.312 125.909C704.266 126.567 698.463 126.987 697.661 125.16C696.776 123.133 702.05 118.51 705.309 116.088C711.392 111.573 720.033 106.774 729.634 102.574C739.234 98.3743 748.625 95.2943 756.073 93.8908C758.484 93.4244 760.932 93.1668 763.388 93.1208C765.638 93.1208 767.493 93.4708 767.938 94.4333C768.585 95.9908 765.624 99.0883 762.74 101.535H762.754Z" fill="#7D0BFE"/>
<path d="M800.131 100.691L792.683 83.6532C789.928 77.3532 781.014 74.3327 767.567 75.1237C754.536 75.8937 738.639 80.1287 722.809 87.0483C706.978 93.9678 693.059 102.77 683.658 111.818C673.948 121.145 670.116 129.748 672.871 136.041L680.319 153.083C682.769 158.718 690.192 161.738 701.368 161.738C702.674 161.738 704.03 161.696 705.435 161.612C718.465 160.842 734.362 156.607 750.193 149.684C766.023 142.761 779.943 133.966 789.344 124.922C799.053 115.591 802.882 106.984 800.131 100.691ZM675.114 135.061C672.835 129.853 676.57 122.024 685.355 113.578C694.567 104.73 708.217 96.1063 723.789 89.2988C739.36 82.4912 754.96 78.3227 767.714 77.5737C769.054 77.4897 770.346 77.4547 771.588 77.4547C781.63 77.4547 788.409 79.9992 790.439 84.6367C792.714 89.8448 788.983 97.6743 780.195 106.12C770.986 114.971 757.336 123.599 741.765 130.406C726.193 137.214 710.594 141.375 697.84 142.131C685.674 142.849 677.392 140.273 675.114 135.061ZM787.646 123.161C778.434 132.009 764.784 140.633 749.213 147.441C733.641 154.248 718.042 158.42 705.288 159.169C693.122 159.869 684.841 157.311 682.566 152.099L677.879 141.382C681.628 143.563 687.063 144.7 693.92 144.7C695.225 144.7 696.58 144.662 697.983 144.578C711.017 143.811 726.914 139.573 742.745 132.653C758.575 125.734 772.495 116.938 781.892 107.891C788.241 101.787 792.077 95.9908 793.201 90.9648L797.898 101.675C800.166 106.883 796.431 114.723 787.646 123.158V123.161Z" fill="#7D0BFE"/>
<path d="M790.439 84.6229C788.409 79.9854 781.63 77.4409 771.588 77.4409C770.346 77.4409 769.054 77.4759 767.714 77.5599C754.959 78.3089 739.363 82.4599 723.788 89.285C708.213 96.11 694.567 104.717 685.355 113.565C676.57 122.01 672.835 129.84 675.114 135.048C677.392 140.256 685.673 142.835 697.839 142.118C710.593 141.362 726.189 137.218 741.764 130.393C757.339 123.568 770.986 114.958 780.195 106.106C788.983 97.6745 792.714 89.845 790.439 84.6229ZM761.718 105.459C755.488 110.079 746.668 114.975 736.913 119.245C727.159 123.515 717.572 126.658 709.963 128.093C709.764 128.135 709.571 128.163 709.375 128.198L709.323 128.244L709.298 128.216C707.022 128.646 704.713 128.88 702.396 128.916C698.571 128.916 696.233 127.981 695.417 126.116C694.154 123.232 696.992 119.193 703.849 114.1C710.079 109.48 718.899 104.584 728.65 100.31C738.401 96.0365 747.994 92.897 755.617 91.4655C764.017 89.887 768.918 90.545 770.164 93.4325C771.41 96.32 768.575 100.373 761.718 105.473V105.459Z" fill="#FFCCEC"/>
<path d="M762.74 101.535C754.76 103.047 744.54 106.337 735.374 110.348C724.261 115.206 714.451 120.848 708.298 125.909C704.252 126.567 698.449 126.987 697.647 125.16C696.762 123.133 702.036 118.51 705.295 116.088C711.378 111.573 720.019 106.774 729.62 102.574C739.22 98.3741 748.611 95.2941 756.059 93.8906C758.47 93.4242 760.918 93.1666 763.374 93.1206C765.624 93.1206 767.479 93.4706 767.924 94.4331C768.585 95.9906 765.624 99.0881 762.74 101.535Z" fill="#7D0BFE"/>
<path d="M787.646 123.158C778.434 132.01 764.784 140.634 749.213 147.441C733.641 154.249 718.042 158.417 705.288 159.17C693.121 159.87 684.84 157.311 682.565 152.1L677.879 141.383C681.627 143.563 687.063 144.701 693.919 144.701C695.225 144.701 696.579 144.662 697.983 144.578C711.017 143.808 726.914 139.573 742.745 132.65C758.575 125.727 772.495 116.935 781.892 107.887C788.241 101.787 792.077 95.9874 793.201 90.9614L797.898 101.675C800.166 106.883 796.431 114.723 787.646 123.158Z" fill="#7D0BFE"/>
<path d="M93.8265 165.137C90.2981 166.573 86.5235 167.307 82.7141 167.297C76.102 167.287 69.6831 165.066 64.479 160.987C59.275 156.908 55.5847 151.205 53.9956 144.787L93.8265 165.137Z" fill="#7D0BFE"/>
<path d="M97.2097 163.563L97.0955 163.62L53.3554 141.273C52.6976 135.867 53.5478 130.384 55.8118 125.431C58.0758 120.478 61.6654 116.247 66.1839 113.207L67.3661 112.392L53.9138 92.4741L-18.5815 45L-19.3682 45.5299C-26.8306 50.5645 -32.9053 57.3968 -37.0324 65.3969C-41.1595 73.397 -43.2062 82.3073 -42.9836 91.3064C-42.7611 100.306 -40.2765 109.104 -35.759 116.89C-31.2415 124.676 -24.8364 131.2 -17.1344 135.86L48.8386 179.27C56.8403 185.808 66.5617 189.893 76.8318 191.034C87.1019 192.175 97.4828 190.322 106.724 185.698L108 185.058L97.2097 163.563ZM93.8262 165.153C90.2979 166.589 86.5232 167.323 82.7139 167.313C76.1017 167.303 69.6828 165.082 64.4788 161.003C59.2747 156.924 55.5845 151.222 53.9953 144.803L93.8262 165.153ZM-15.5894 133.471L-15.6342 133.442C-22.9881 128.975 -29.0979 122.726 -33.3994 115.274C-39.7188 104.288 -41.6991 91.336 -38.951 78.9643C-36.2028 66.5925 -28.9249 55.6968 -18.5489 48.4201L51.362 94.2066C45.5713 98.3761 40.6717 103.66 36.9506 109.749C33.2295 115.837 30.7619 122.607 29.6927 129.662C28.6234 136.717 28.974 143.915 30.7238 150.833C32.4737 157.75 35.5876 164.249 39.8827 169.947L-15.5894 133.471ZM82.7139 188.503C71.9633 188.502 61.4902 185.09 52.8032 178.756C44.1161 172.423 37.6634 163.496 34.3744 153.261C31.0853 143.026 31.1298 132.011 34.5013 121.803C37.8728 111.594 44.3973 102.72 53.1352 96.4568L63.4119 111.666C57.9267 115.726 53.8618 121.412 51.7958 127.916C49.7298 134.42 49.768 141.41 51.905 147.891C54.042 154.372 58.1689 160.014 63.6982 164.013C69.2275 168.013 75.8775 170.166 82.7016 170.167C87.2535 170.182 91.7561 169.225 95.9092 167.362L104.131 183.774C97.4285 186.912 90.1149 188.529 82.7139 188.511V188.503Z" fill="#7D0BFE"/>
<path d="M104.144 183.774C97.4368 186.913 90.1189 188.531 82.7138 188.511C71.961 188.513 61.4852 185.101 52.7957 178.767C44.1063 172.434 37.6519 163.505 34.3625 153.268C31.0731 143.03 31.1185 132.013 34.4922 121.803C37.8659 111.594 44.3938 102.718 53.1351 96.4565L63.4118 111.666C57.9266 115.725 53.8617 121.412 51.7957 127.916C49.7297 134.42 49.7679 141.41 51.9049 147.891C54.0419 154.372 58.1688 160.013 63.6981 164.013C69.2274 168.012 75.8774 170.166 82.7015 170.167C87.2534 170.181 91.756 169.225 95.9091 167.362L104.144 183.774Z" fill="#FFCCEC"/>
<path d="M29.0846 137.739C29.0711 149.371 32.8619 160.689 39.879 169.967L-15.5931 133.471L-15.638 133.442C-22.9919 128.974 -29.1016 122.726 -33.4031 115.273C-39.7225 104.288 -41.7029 91.3358 -38.9547 78.9641C-36.2065 66.5923 -28.9287 55.6966 -18.5526 48.4199L51.3582 94.2064C44.4578 99.1746 38.8388 105.714 34.9657 113.283C31.0927 120.853 29.0768 129.236 29.0846 137.739V137.739Z" fill="#7D0BFE"/>
</g>
<defs>
<clipPath id="clip0_388_9482">
<path d="M0 0H773V624C773 632.837 765.837 640 757 640H16C7.16342 640 0 632.837 0 624V0Z" fill="white"/>
</clipPath>
</defs>
</svg>
