<svg width="253" height="238" viewBox="0 0 253 238" fill="none" xmlns="http://www.w3.org/2000/svg">
<path fill-rule="evenodd" clip-rule="evenodd" d="M87.9559 174.646C78.3812 172.777 69.0251 168.955 60.4772 163.07C27.1438 140.122 18.7251 94.4962 41.6736 61.1628C64.6221 27.8293 110.248 19.4106 143.581 42.3591C152.129 48.2441 159.039 55.6205 164.201 63.8984C173.776 65.7667 183.132 69.5888 191.68 75.4736C225.014 98.4221 233.432 144.048 210.484 177.381C187.535 210.715 141.91 219.133 108.576 196.185C100.028 190.3 93.1183 182.923 87.9559 174.646Z" fill="#7D0BFE"/>
<g clip-path="url(#clip0_148_575)">
<path d="M172.578 89.6553L177.199 79.6718L178.943 80.754L174.776 89.3896L175.017 89.5557L181.25 82.2238L184.256 84.0561L180.331 92.8579L180.572 93.024L186.564 85.526L188.308 86.6082L181.244 95.1471L178.293 93.2343L182.33 84.2717L182.089 84.1056L175.745 91.5984L172.578 89.6553Z" fill="black"/>
<path d="M183.517 97.1851L191.219 89.4413L196.209 94.4185L194.915 95.7812L191.392 92.2886L189.469 94.0485L192.726 97.2392L191.432 98.6019L188.176 95.4113L186.278 97.307L189.881 100.855L188.587 102.218L183.517 97.1851Z" fill="black"/>
<path d="M189.546 103.234L191.051 102.254L191.9 103.431L197.949 99.2938L197.1 98.1164L198.605 97.136L201.785 101.816C202.156 102.309 202.417 102.963 202.437 103.451C202.537 103.994 202.476 104.427 202.36 104.94C202.164 105.397 201.887 105.8 201.393 106.172L201.258 106.197C200.82 106.489 200.493 106.619 200.085 106.695C199.733 106.689 199.381 106.684 199.084 106.599C198.788 106.513 198.547 106.347 198.386 106.236L198.139 106.422C198.244 106.613 198.295 106.885 198.289 107.237C198.284 107.589 198.198 107.886 198.057 108.263C197.916 108.64 197.614 108.907 197.176 109.199L197.04 109.224C196.547 109.596 196.084 109.751 195.516 109.716C195.028 109.736 194.515 109.62 194.032 109.288C193.55 108.956 193.203 108.598 192.751 108.05L189.546 103.234ZM193.04 105.047L194.181 106.662C194.391 107.044 194.713 107.266 195.09 107.407C195.387 107.492 195.794 107.417 196.041 107.231L196.177 107.206C196.479 106.94 196.645 106.698 196.731 106.401C196.817 106.105 196.606 105.722 196.395 105.34L195.254 103.725L193.04 105.047ZM196.845 102.447L197.905 104.007C198.116 104.39 198.437 104.611 198.734 104.697C199.031 104.783 199.383 104.788 199.685 104.521L199.821 104.496C200.123 104.23 200.289 103.988 200.294 103.636C200.299 103.284 200.169 102.957 199.958 102.575L198.898 101.015L196.845 102.447Z" fill="black"/>
<path d="M196.723 115.884C196.382 115.174 196.232 114.359 196.242 113.655C196.253 112.951 196.424 112.357 196.812 111.794C197.2 111.231 197.693 110.859 198.403 110.517L198.674 110.467L199.432 112.293L199.241 112.398C198.723 112.635 198.365 112.982 198.249 113.495C198.133 114.008 198.097 114.576 198.414 115.15C198.675 115.804 199.021 116.161 199.479 116.358C199.936 116.554 200.369 116.614 200.807 116.323L200.943 116.298C201.27 116.167 201.516 115.981 201.547 115.765C201.713 115.523 201.743 115.307 201.748 114.955C201.754 114.603 201.704 114.331 201.518 114.085L200.655 112.067L202.672 111.203L205.803 113.714L205.995 113.609L203.796 108.537L205.431 107.884L208.493 114.973L206.093 116.048L203.203 113.703L203.012 113.809L203.248 114.327C203.403 114.79 203.559 115.252 203.579 115.74C203.598 116.228 203.482 116.741 203.205 117.144C202.928 117.546 202.515 117.974 201.917 118.154L201.725 118.26C201.071 118.521 200.392 118.647 199.799 118.475C199.15 118.385 198.612 118.133 198.105 117.665C197.597 117.197 197.065 116.593 196.723 115.884Z" fill="black"/>
<path d="M199.078 121.419L209.708 118.893L210.219 120.905L201.41 123.024L202.583 127.864L200.762 128.271L199.078 121.419Z" fill="black"/>
<path d="M200.856 129.166L211.954 131.47L212.117 135.021L201.366 138.413L201.262 136.325L203.657 135.601L203.499 131.698L201.095 131.229L200.856 129.166ZM205.334 132.131L205.453 135.059L210.705 133.456L210.655 133.185L205.334 132.131Z" fill="black"/>
<path d="M201.239 139.63L203.049 139.927L202.811 141.306L210.028 142.36L210.266 140.982L212.076 141.279L211.413 145.686C211.201 147.2 210.672 148.14 209.821 148.859C209.026 149.498 207.803 149.724 206.425 149.487L204.399 149.159C202.885 148.947 201.945 148.418 201.282 147.487C200.699 146.612 200.419 145.47 200.712 144.011L201.239 139.63ZM202.563 143.388L202.467 144.389C202.345 145.254 202.445 145.798 202.817 146.291C203.189 146.784 203.727 147.036 204.592 147.157L206.754 147.459C207.539 147.525 208.162 147.48 208.656 147.108C209.093 146.816 209.481 146.253 209.603 145.388L209.699 144.387L202.563 143.388Z" fill="black"/>
<path d="M199.231 150.464L209.72 153.653L209.094 155.594L198.605 152.406L199.231 150.464Z" fill="black"/>
<path d="M197.84 154.725L207.795 159.206L204.907 165.638L203.213 164.828L205.259 160.306L202.891 159.269L200.986 163.413L199.292 162.603L201.197 158.458L198.748 157.366L196.647 161.968L194.953 161.157L197.84 154.725Z" fill="black"/>
<path d="M191.714 165.689C192.212 164.964 192.761 164.512 193.39 164.115C194.019 163.718 194.698 163.592 195.347 163.683C196.051 163.693 196.669 164 197.313 164.443L197.634 164.665L196.471 166.354L196.149 166.133C195.586 165.745 195.073 165.63 194.611 165.785C194.148 165.941 193.655 166.313 193.267 166.876C192.879 167.44 192.627 167.978 192.702 168.385C192.777 168.793 192.908 169.12 193.254 169.477C193.496 169.643 193.792 169.729 194.064 169.679C194.336 169.628 194.607 169.578 194.909 169.312C195.211 169.045 195.458 168.859 195.896 168.568L196.198 168.301C196.802 167.768 197.295 167.396 197.869 167.079C198.387 166.843 198.905 166.607 199.418 166.723C199.906 166.703 200.444 166.955 201.007 167.342C201.57 167.73 201.941 168.223 202.097 168.686C202.333 169.204 202.297 169.772 202.206 170.421C202.115 171.07 201.808 171.689 201.364 172.333C200.921 172.976 200.373 173.429 199.879 173.801C199.306 174.118 198.707 174.298 198.083 174.343C197.46 174.388 196.841 174.081 196.198 173.638L195.796 173.362L196.959 171.672L197.361 171.949C197.683 172.17 198.06 172.311 198.276 172.341C198.493 172.372 198.9 172.296 199.147 172.11C199.393 171.924 199.695 171.658 199.917 171.336C200.249 170.853 200.446 170.396 200.451 170.043C200.456 169.691 200.246 169.309 199.924 169.087C199.683 168.921 199.466 168.891 199.25 168.861C199.034 168.83 198.707 168.961 198.516 169.067C198.269 169.253 197.887 169.464 197.585 169.73L197.283 169.997C196.679 170.53 196.13 170.982 195.556 171.299C194.983 171.616 194.52 171.771 193.896 171.816C193.272 171.862 192.815 171.665 192.252 171.278C191.689 170.89 191.317 170.397 191.081 169.879C190.901 169.28 190.856 168.656 190.947 168.007C190.852 167.112 191.215 166.413 191.714 165.689Z" fill="black"/>
<path d="M181.938 176.274C182.98 175.449 184.097 175.032 185.098 175.128C186.235 175.199 187.175 175.727 188.079 176.824L189.782 178.827C190.687 179.924 191.023 180.986 190.951 182.123C190.88 183.259 190.215 184.225 189.173 185.05C188.131 185.874 187.15 186.266 186.014 186.195C185.013 186.099 184.073 185.571 183.249 184.529L183.168 184.474L184.759 183.197L184.92 183.307C185.291 183.8 185.774 184.133 186.342 184.168C186.855 184.284 187.454 184.103 188.003 183.651C188.551 183.198 188.803 182.66 188.894 182.011C188.93 181.443 188.669 180.789 188.217 180.24L186.569 178.157C186.117 177.608 185.554 177.221 184.905 177.13C184.256 177.039 183.738 177.275 183.109 177.672C182.56 178.125 182.228 178.608 182.273 179.232C182.237 179.8 182.473 180.318 182.845 180.811L183.031 181.058L181.44 182.335L181.335 182.144C180.511 181.102 180.119 180.121 180.216 179.12C180.312 178.119 180.977 177.153 181.938 176.274Z" fill="black"/>
<path d="M173.428 181.919C174.655 181.341 175.797 181.06 176.848 181.427C177.954 181.715 178.728 182.485 179.441 183.687L180.707 185.982C181.364 187.265 181.565 188.351 181.197 189.402C180.828 190.454 180.003 191.309 178.856 191.942C177.708 192.575 176.486 192.801 175.435 192.434C174.329 192.146 173.555 191.376 172.842 190.174L171.576 187.879C170.919 186.596 170.718 185.51 171.087 184.458C171.455 183.407 172.225 182.633 173.428 181.919ZM174.296 183.584C173.587 183.926 173.254 184.409 173.083 185.003C172.911 185.596 172.956 186.22 173.353 186.849L174.643 189.279C174.985 189.989 175.467 190.321 176.005 190.572C176.598 190.744 177.222 190.699 177.932 190.357C178.641 190.015 178.973 189.532 179.145 188.939C179.316 188.345 179.272 187.722 178.875 187.093L177.585 184.662C177.243 183.953 176.761 183.621 176.223 183.369C175.629 183.198 175.006 183.243 174.296 183.584Z" fill="black"/>
<path d="M167.826 185.061L170.482 195.667L166.729 196.641L162.583 187.856L162.311 187.906L162.841 197.64L159.088 198.615L156.432 188.01L158.308 187.522L160.689 196.633L160.961 196.583L160.456 186.985L163.746 186.166L167.868 194.815L168.139 194.765L165.758 185.654L167.826 185.061Z" fill="black"/>
<path d="M154.369 188.25L154.204 199.166L150.331 199.109L148.579 189.601L148.308 189.651L146.267 199.158L142.395 199.101L142.56 188.185L144.537 188.241L144.448 197.668L144.72 197.618L146.705 188.192L150.089 188.269L151.841 197.777L152.113 197.727L152.202 188.3L154.369 188.25Z" fill="black"/>
<path d="M136.466 186.361C137.356 186.618 138.055 186.981 138.562 187.449C139.07 187.917 139.467 188.546 139.647 189.144C139.772 189.824 139.842 190.583 139.64 191.393L137.884 198.249L135.887 197.705L137.699 190.769C137.871 190.175 137.826 189.551 137.535 189.113C137.243 188.676 136.761 188.343 136.087 188.117C135.358 187.971 134.87 187.991 134.352 188.227C133.914 188.518 133.582 189.001 133.41 189.595L131.598 196.531L129.602 195.987L131.358 189.131C131.56 188.321 131.923 187.622 132.391 187.114C132.859 186.606 133.433 186.29 134.168 186.084C134.872 186.094 135.656 186.16 136.466 186.361Z" fill="black"/>
<path d="M130.287 184.835L125.424 194.652L121.875 192.92L124.132 183.444L123.89 183.278L119.643 191.858L117.788 190.937L122.65 181.119L126.199 182.851L123.943 192.328L124.184 192.494L128.431 183.914L130.287 184.835Z" fill="black"/>
<path d="M120.83 179.63L114.787 188.752L113.098 187.59L119.142 178.467L120.83 179.63Z" fill="black"/>
<path d="M115.286 175.457L109.225 182.195L111.577 184.289L110.283 185.651L103.976 180.005L105.27 178.642L107.622 180.735L113.683 173.997L115.286 175.457Z" fill="black"/>
<path d="M108.594 168.477L105.579 170.79L102.082 178.108L100.7 176.326L103.073 171.674L102.887 171.427L97.7263 172.381L96.3448 170.6L104.303 169.199L107.317 166.887L108.594 168.477Z" fill="black"/>
<path d="M102.003 158.247L92.176 163.224L91.4736 161.317L100.123 157.19L100.073 156.919L90.646 158.731L89.5324 155.355L98.0514 150.901L98.0013 150.63L88.7049 152.769L88.0024 150.862L98.8179 148.583L99.9315 151.958L91.2213 156.518L91.2714 156.789L100.89 154.872L102.003 158.247Z" fill="black"/>
<path d="M98.1315 145.62L87.2766 146.923L86.4881 139.976L88.3342 139.705L88.9635 144.645L91.5691 144.304L91.0149 139.771L92.861 139.5L93.4152 144.033L96.1012 143.747L95.5273 138.727L97.3734 138.456L98.1315 145.62Z" fill="black"/>
<path d="M97.2049 137.153L95.4195 136.991L95.5767 135.557L88.3246 135.071L88.1674 136.505L86.382 136.343L86.8196 130.714C86.9107 130.066 87.0018 129.417 87.2788 129.014C87.5307 128.476 87.8881 128.129 88.2706 127.918C88.7084 127.626 89.1963 127.607 89.7646 127.642L89.9004 127.617C90.3883 127.597 90.8458 127.793 91.0871 127.959C91.4087 128.181 91.5946 128.427 91.7805 128.674C91.9664 128.921 92.0164 129.192 92.1219 129.383L92.3381 129.414C92.3685 129.197 92.5347 128.956 92.7009 128.715C92.8671 128.473 93.1691 128.207 93.4961 128.076C93.8231 127.945 94.2306 127.87 94.7989 127.906L95.0151 127.936C95.5834 127.971 96.1768 128.143 96.5235 128.5C96.9256 128.777 97.2169 129.215 97.4529 129.733C97.6888 130.251 97.7335 130.875 97.6978 131.443L97.2049 137.153ZM91.0623 133.161L91.1998 131.239C91.2606 130.807 91.1301 130.48 90.9996 130.153C90.8137 129.906 90.492 129.685 90.14 129.679L90.0042 129.705C89.6521 129.699 89.3251 129.83 89.0784 130.016C88.8318 130.202 88.6907 130.579 88.7104 131.067L88.5729 132.989L91.0623 133.161ZM95.6088 133.444L95.7463 131.523C95.807 131.09 95.7319 130.683 95.4656 130.381C95.2798 130.134 94.9581 129.913 94.606 129.908L94.4702 129.933C94.0377 129.872 93.7107 130.003 93.5445 130.244C93.2425 130.511 93.1567 130.808 93.1764 131.295L93.0389 133.217L95.6088 133.444Z" fill="black"/>
<path d="M99.3996 122.771C99.1977 123.581 98.8903 124.2 98.3667 124.788C97.8985 125.296 97.4053 125.668 96.7512 125.93C96.1526 126.11 95.4484 126.1 94.7193 125.954L94.4226 125.868L94.9122 123.952L95.1284 123.982C95.7218 124.153 96.1846 123.998 96.6224 123.706C97.0603 123.414 97.3926 122.932 97.5642 122.338C97.7911 121.664 97.691 121.121 97.5355 120.658C97.38 120.195 96.9779 119.918 96.465 119.802L96.2487 119.772C95.9521 119.686 95.6 119.681 95.4088 119.787C95.2176 119.892 94.9709 120.078 94.8048 120.32C94.6386 120.561 94.5528 120.858 94.4116 121.235L93.8113 123.312L91.7346 122.713L90.873 118.799L90.6568 118.769L89.2488 124.085L87.5492 123.627L89.6129 116.152L92.2025 116.868L93.0141 120.51L93.2303 120.54L93.4018 119.947C93.518 119.434 93.795 119.032 94.0719 118.629C94.3489 118.227 94.7868 117.935 95.2496 117.78C95.7125 117.624 96.3362 117.579 96.9295 117.75L97.1457 117.78C97.8195 118.007 98.3574 118.259 98.8096 118.807C99.1814 119.3 99.4977 119.874 99.6228 120.553C99.748 121.232 99.6015 121.962 99.3996 122.771Z" fill="black"/>
<path d="M101.005 116.997L91.2165 112.275L92.1386 110.419L100.368 114.306L102.55 109.759L104.245 110.57L101.005 116.997Z" fill="black"/>
<path d="M104.446 109.76L97.2916 101.039L99.4216 98.1173L110.005 102.201L108.786 103.972L106.443 103.07L104.147 106.233L105.77 108.181L104.446 109.76ZM102.816 104.724L104.558 102.365L99.47 100.285L99.3038 100.527L102.816 104.724Z" fill="black"/>
<path d="M110.751 101.291L109.525 99.9721L110.542 99.0117L105.557 93.6824L104.54 94.6429L103.314 93.3244L106.612 90.2571C107.684 89.2163 108.72 88.7438 109.857 88.8147C110.913 88.8302 111.934 89.4142 112.974 90.4861L114.386 92.0511C115.426 93.123 115.842 94.24 115.826 95.2964C115.81 96.3527 115.226 97.3737 114.154 98.4146L110.751 101.291ZM112.027 97.5434L112.742 96.8495C113.346 96.3165 113.653 95.6979 113.689 95.1295C113.724 94.5611 113.408 93.9875 112.876 93.3836L111.383 91.7632C110.851 91.1593 110.232 90.8522 109.664 90.8168C109.096 90.7813 108.442 91.0426 107.838 91.5756L107.123 92.2695L112.027 97.5434Z" fill="black"/>
<path d="M119.122 94.1259L112.893 85.0937L114.644 83.9273L120.873 92.9595L119.122 94.1259Z" fill="black"/>
<path d="M122.79 91.552L117.844 81.8613L124.068 78.6745L124.937 80.3399L120.514 82.632L121.644 84.9515L125.684 82.8705L126.553 84.536L122.512 86.617L123.722 88.9918L128.281 86.6746L129.15 88.3401L122.79 91.552Z" fill="black"/>
<path d="M134.427 86.873C133.637 87.1594 132.878 87.2295 132.148 87.0833C131.419 86.9372 130.826 86.7659 130.318 86.2978C129.811 85.8298 129.494 85.2562 129.208 84.4663L129.053 84.0034L130.985 83.4358L131.14 83.8986C131.321 84.4973 131.612 84.9351 132.15 85.1869C132.608 85.3832 133.231 85.3382 133.91 85.2127C134.645 85.0068 135.083 84.7152 135.304 84.3933C135.526 84.0715 135.587 83.6389 135.512 83.2314C135.461 82.9597 135.276 82.7131 135.034 82.547C134.793 82.3809 134.577 82.3507 134.225 82.3455C133.873 82.3403 133.44 82.2798 133.033 82.3551L132.681 82.3499C131.921 82.42 131.217 82.4097 130.704 82.2937C130.136 82.2583 129.598 82.0066 129.251 81.6493C128.849 81.3724 128.613 80.8542 128.352 80.2001C128.172 79.6014 128.127 78.9776 128.298 78.3841C128.47 77.7906 128.747 77.3883 129.296 76.9357C129.789 76.5637 130.418 76.1665 131.152 75.9606C131.887 75.7546 132.646 75.6845 133.295 75.7753C133.944 75.8661 134.482 76.1179 135.045 76.5055C135.472 76.9181 135.924 77.4666 136.13 78.2012L136.285 78.664L134.353 79.2317L133.926 78.819C133.851 78.4115 133.585 78.1096 133.399 77.863C133.158 77.6969 132.916 77.5308 132.564 77.5256C132.212 77.5205 131.86 77.5153 131.533 77.6459C130.879 77.9073 130.497 78.1184 130.275 78.4402C130.053 78.7621 130.048 79.1142 130.123 79.5217C130.173 79.7934 130.279 79.9846 130.52 80.1507C130.681 80.2614 130.977 80.3471 131.274 80.4327C131.571 80.5183 131.978 80.4431 132.466 80.4231L132.818 80.4283C133.578 80.3582 134.282 80.3685 134.931 80.4593C135.579 80.5502 136.037 80.7465 136.519 81.0787C136.921 81.3556 137.293 81.8487 137.418 82.5279C137.599 83.1266 137.644 83.7504 137.472 84.3439C137.301 84.9374 136.968 85.4202 136.42 85.8727C135.871 86.3252 135.217 86.5866 134.427 86.873Z" fill="black"/>
<path d="M78.3385 148.715L73.7176 158.699L71.9733 157.617L76.1404 148.981L75.8991 148.815L69.666 156.147L66.66 154.314L70.5858 145.513L70.3446 145.347L64.3528 152.845L62.6085 151.762L69.6725 143.223L72.6785 145.056L68.6419 154.018L68.8832 154.184L75.227 146.692L78.3385 148.715Z" fill="black"/>
<path d="M67.3992 141.185L59.6971 148.929L54.7072 143.952L56.001 142.589L59.5236 146.082L61.366 144.267L58.1097 141.076L59.4035 139.713L62.6598 142.904L64.5576 141.008L60.9546 137.46L62.2484 136.097L67.3992 141.185Z" fill="black"/>
<path d="M61.3698 135.136L59.8651 136.117L59.0161 134.939L52.967 139.077L53.8159 140.254L52.3112 141.235L49.1317 136.555C48.7599 136.062 48.499 135.408 48.4793 134.92C48.3792 134.376 48.4399 133.944 48.5561 133.431C48.7526 132.973 49.0296 132.571 49.5228 132.199L49.6586 132.174C50.0965 131.882 50.4235 131.751 50.831 131.676C51.183 131.681 51.5351 131.686 51.8318 131.772C52.1284 131.858 52.3697 132.024 52.5305 132.135L52.7771 131.949C52.6717 131.757 52.6216 131.486 52.627 131.134C52.6323 130.781 52.7181 130.485 52.8593 130.107C53.0004 129.73 53.3024 129.464 53.7403 129.172L53.8761 129.147C54.3693 128.775 54.8322 128.619 55.4005 128.655C55.8883 128.635 56.4013 128.751 56.8838 129.083C57.3663 129.415 57.713 129.772 58.1652 130.321L61.3698 135.136ZM54.1266 135.843L53.0668 134.283C52.8559 133.9 52.5342 133.679 52.2375 133.593C51.9409 133.508 51.5888 133.502 51.2868 133.769L51.151 133.794C50.849 134.061 50.6828 134.302 50.6774 134.654C50.6721 135.006 50.8026 135.333 51.0135 135.716L52.0733 137.276L54.1266 135.843ZM57.7954 133.269L56.6552 131.653C56.4443 131.271 56.1226 131.049 55.7455 130.908C55.3684 130.767 55.0414 130.898 54.7948 131.084L54.6589 131.109C54.3569 131.376 54.1907 131.617 54.105 131.914C54.0192 132.211 54.2301 132.593 54.441 132.975L55.5813 134.591L57.7954 133.269Z" fill="black"/>
<path d="M54.1942 122.487C54.5356 123.196 54.6858 124.011 54.6751 124.715C54.6644 125.42 54.4929 126.013 54.1051 126.576C53.7173 127.14 53.2241 127.512 52.5146 127.854L52.243 127.904L51.4851 126.077L51.6764 125.972C52.1946 125.736 52.552 125.389 52.6681 124.876C52.7843 124.362 52.82 123.794 52.5036 123.22C52.2427 122.566 51.896 122.209 51.4384 122.013C50.9809 121.816 50.5485 121.756 50.1106 122.047L49.9748 122.072C49.6478 122.203 49.4012 122.389 49.3708 122.605C49.2046 122.847 49.1742 123.063 49.1689 123.415C49.2189 123.687 49.2136 124.039 49.3995 124.286L50.2628 126.303L48.2452 127.168L45.114 124.656L44.9228 124.762L47.1212 129.833L45.486 130.487L42.4243 123.397L44.8243 122.322L47.7142 124.667L47.9055 124.562L47.6695 124.044C47.514 123.581 47.3585 123.118 47.3388 122.63C47.3192 122.142 47.4353 121.629 47.7123 121.226C47.9892 120.824 48.4021 120.397 49.0007 120.216L49.1919 120.11C49.846 119.849 50.5251 119.723 51.1184 119.895C51.7672 119.986 52.3051 120.237 52.8127 120.705C53.3202 121.173 53.8528 121.777 54.1942 122.487Z" fill="black"/>
<path d="M51.8411 116.952L41.2115 119.478L40.7003 117.466L49.5089 115.347L48.3363 110.507L50.1573 110.1L51.8411 116.952Z" fill="black"/>
<path d="M50.0627 109.205L38.9645 106.901L38.8017 103.35L49.5528 99.9584L49.6566 102.046L47.2619 102.77L47.4194 106.673L49.8231 107.142L50.0627 109.205ZM45.584 106.24L45.4659 103.312L40.2136 104.915L40.2637 105.186L45.584 106.24Z" fill="black"/>
<path d="M49.677 98.7408L47.8666 98.4433L48.1042 97.065L40.8878 96.0107L40.6502 97.389L38.8398 97.0914L39.5026 92.685C39.7152 91.1709 40.2441 90.2305 41.0948 89.5115C41.89 88.8729 43.1124 88.647 44.4902 88.884L46.5169 89.2118C48.0306 89.4237 48.9706 89.9523 49.6337 90.8832C50.2163 91.7587 50.497 92.9008 50.204 94.3595L49.677 98.7408ZM48.3525 94.9825L48.5044 93.901C48.6259 93.0358 48.5257 92.4925 48.154 91.9994C47.7823 91.5062 47.2443 91.2545 46.3793 91.1334L44.2169 90.8307C43.4324 90.765 42.8087 90.81 42.3154 91.1821C41.8776 91.4736 41.4898 92.0369 41.3684 92.9021L41.2719 93.9031L48.3525 94.9825Z" fill="black"/>
<path d="M51.6862 87.9063L41.2529 84.6373L41.8782 82.6958L52.367 85.8843L51.6862 87.9063Z" fill="black"/>
<path d="M52.996 83.5906L43.0416 79.1095L45.9292 72.6767L47.6234 73.4873L45.5774 78.0088L48.0258 79.1014L49.9307 74.9571L51.5445 75.7123L49.6396 79.8567L52.088 80.9493L54.1894 76.3472L55.8837 77.1578L52.996 83.5906Z" fill="black"/>
<path d="M59.2035 72.682C58.705 73.4062 58.1563 73.8587 57.5273 74.2559C56.8983 74.6531 56.2192 74.7785 55.5704 74.6877C54.8663 74.6774 54.248 74.3703 53.6046 73.9273L53.2829 73.7059L54.4462 72.0161L54.7679 72.2376C55.3308 72.6251 55.8438 72.7411 56.3066 72.5853C56.7695 72.4295 57.2627 72.0575 57.6505 71.4942C58.0382 70.931 58.2902 70.3928 58.2151 69.9853C58.2759 69.5527 58.0096 69.2508 57.6879 69.0293C57.4466 68.8632 57.1499 68.7776 56.8783 68.8278C56.6066 68.878 56.335 68.9282 56.033 69.1947C55.731 69.4611 55.4844 69.6472 55.0465 69.9388L54.7445 70.2053C54.1405 70.7382 53.6473 71.1103 53.0737 71.427C52.5554 71.6632 52.0371 71.8994 51.5242 71.7835C51.0364 71.8034 50.4984 71.5517 49.9355 71.1641C49.3725 70.7766 49.0007 70.2834 48.8452 69.8206C48.6093 69.3023 48.645 68.7339 48.7361 68.085C49.0435 67.4664 49.3508 66.8477 49.794 66.204C50.2372 65.5603 50.7858 65.1078 51.279 64.7357C51.8527 64.4191 52.4513 64.2382 53.075 64.1932C53.6988 64.1482 54.3171 64.4553 54.9605 64.8982L55.3626 65.175L54.1993 66.8648L53.7972 66.588C53.4755 66.3665 53.0984 66.2255 52.8821 66.1952C52.6659 66.165 52.2584 66.2402 52.0118 66.4263C51.7652 66.6123 51.4632 66.8788 51.2416 67.2006C50.9093 67.6834 50.7127 68.1411 50.7074 68.4933C50.702 68.8454 50.9129 69.2278 51.2346 69.4493C51.4759 69.6154 51.6921 69.6456 51.9084 69.6759C52.1246 69.7062 52.4516 69.5755 52.6429 69.47C52.8341 69.3644 53.2719 69.0728 53.5739 68.8063L53.8759 68.5398C54.4799 68.0068 55.0285 67.5543 55.6022 67.2376C56.1758 66.9209 56.6387 66.7652 57.2624 66.7202C57.7503 66.7002 58.3436 66.8715 58.9066 67.2591C59.4695 67.6467 59.8413 68.1398 60.0772 68.658C60.2578 69.2567 60.3025 69.8805 60.2114 70.5294C59.9844 71.2034 59.7021 71.9579 59.2035 72.682Z" fill="black"/>
<path d="M68.8986 62.0415C67.8568 62.8661 66.7398 63.2831 65.739 63.1872C64.6024 63.1163 63.6624 62.5877 62.758 61.4907L61.0548 59.4879C60.1505 58.3909 59.8144 57.3293 59.8858 56.1924C59.9573 55.0556 60.622 54.09 61.6639 53.2654C62.7057 52.4409 63.6868 52.0489 64.8234 52.1198C65.8242 52.2158 66.7643 52.7443 67.5882 53.786L67.6686 53.8413L66.0781 55.1184L65.9173 55.0077C65.5456 54.5146 65.063 54.1824 64.4947 54.1469C63.9818 54.031 63.3831 54.2119 62.8345 54.6644C62.2859 55.1169 62.0339 55.6551 61.9428 56.3039C61.8517 56.9528 62.1681 57.5264 62.6202 58.0749L64.2681 60.1582C64.7202 60.7067 65.2832 61.0943 65.9319 61.1851C66.5807 61.2759 67.0989 61.0397 67.728 60.6425C68.2766 60.19 68.609 59.7072 68.5642 59.0834C68.6 58.515 68.364 57.9968 67.9923 57.5036L67.8064 57.2571L69.3969 55.98L69.5023 56.1712C70.3262 57.2128 70.7177 58.1939 70.6212 59.1949C70.5248 60.196 69.9404 61.2169 68.8986 62.0415Z" fill="black"/>
<path d="M77.4095 56.3961C76.1818 56.9741 75.0398 57.2554 73.989 56.8877C72.8827 56.6005 72.1088 55.8306 71.3957 54.628L70.1303 52.3336C69.553 51.1059 69.4082 49.9388 69.7763 48.8876C70.1444 47.8364 70.97 46.9815 72.1173 46.3481C73.4004 45.6897 74.4869 45.4889 75.5932 45.7761C76.6994 46.0633 77.4733 46.8332 78.1864 48.0358L79.4518 50.3302C80.1095 51.6132 80.3098 52.6999 79.9417 53.7511C79.5182 54.8828 78.6926 55.7376 77.4095 56.3961ZM76.6213 54.786C77.3307 54.4443 77.6631 53.9615 77.8346 53.3679C78.0062 52.7744 77.9615 52.1506 77.5647 51.5217L76.2743 49.0914C75.9329 48.382 75.4503 48.0498 74.9124 47.798C74.3191 47.6268 73.6954 47.6718 72.9859 48.0136C72.2764 48.3554 71.9441 48.8381 71.7725 49.4317C71.601 50.0252 71.6457 50.649 72.0425 51.278L73.3329 53.7082C73.6743 54.4176 74.1568 54.7498 74.6948 55.0016C75.2327 55.2533 75.9118 55.1278 76.6213 54.786Z" fill="black"/>
<path d="M83.1454 53.2289L80.4892 42.6236L84.2421 41.6492L88.3887 50.4341L88.6603 50.3839L88.1308 40.6497L91.8837 39.6753L94.54 50.2806L92.6635 50.7678L90.2826 41.6567L90.0109 41.7069L90.5154 51.3052L87.2254 52.1238L83.1038 43.4748L82.8322 43.525L85.2131 52.6361L83.1454 53.2289Z" fill="black"/>
<path d="M96.546 50.1206L96.7116 39.2045L100.584 39.2614L102.336 48.7697L102.608 48.7195L104.648 39.2128L108.521 39.2697L108.355 50.1857L106.187 50.2351L106.276 40.8081L106.005 40.8583L104.02 50.2846L100.635 50.2077L98.883 40.6995L98.6114 40.7496L98.5225 50.1767L96.546 50.1206Z" fill="black"/>
<path d="M114.369 51.9539C113.479 51.697 112.78 51.3346 112.273 50.8665C111.765 50.3985 111.368 49.7695 111.188 49.1708C111.063 48.4916 110.993 47.732 111.195 46.9222L112.951 40.0664L114.947 40.6105L113.136 47.5468C112.964 48.1403 113.009 48.7641 113.3 49.2018C113.591 49.6396 114.074 49.9718 114.748 50.1985C115.421 50.4251 115.965 50.3247 116.483 50.0885C116.921 49.7969 117.253 49.3141 117.425 48.7206L119.237 41.7843L121.233 42.3284L119.476 49.1842C119.274 49.9941 118.912 50.6931 118.444 51.201C117.975 51.7089 117.402 52.0256 116.667 52.2316C116.099 52.1961 115.259 52.2109 114.369 51.9539Z" fill="black"/>
<path d="M120.631 53.5359L125.493 43.7184L129.042 45.4503L126.785 54.9268L127.027 55.0929L131.274 46.5127L133.129 47.434L128.267 57.2515L124.718 55.5196L126.974 46.0431L126.733 45.877L122.486 54.4572L120.631 53.5359Z" fill="black"/>
<path d="M130.143 58.6609L136.187 49.5381L137.875 50.7008L131.832 59.8236L130.143 58.6609Z" fill="black"/>
<path d="M135.684 62.8335L141.746 56.0951L139.394 54.0015L140.688 52.6388L146.995 58.2855L145.701 59.6482L143.349 57.5546L137.287 64.293L135.684 62.8335Z" fill="black"/>
<path d="M142.323 69.8939L145.338 67.5811L148.835 60.2632L150.217 62.0445L147.843 66.6967L148.029 66.9433L153.19 65.9896L154.572 67.771L146.614 69.1712L143.599 71.484L142.323 69.8939Z" fill="black"/>
<path d="M148.888 79.9875L158.715 75.0113L159.417 76.9182L150.768 81.0447L150.818 81.3163L160.245 79.5042L161.359 82.88L152.84 87.3336L152.89 87.6052L162.186 85.466L162.889 87.3729L152.073 89.6523L150.959 86.2764L159.67 81.7173L159.62 81.4457L150.001 83.3634L148.888 79.9875Z" fill="black"/>
<path d="M152.783 92.7513L163.638 91.4478L164.427 98.3951L162.581 98.666L161.951 93.7259L159.346 94.0669L159.9 98.5996L158.054 98.8705L157.5 94.3378L154.814 94.6234L155.388 99.6441L153.542 99.915L152.783 92.7513Z" fill="black"/>
<path d="M153.711 101.218L155.497 101.38L155.339 102.813L162.592 103.299L162.749 101.866L164.534 102.027L164.097 107.656C164.005 108.305 163.914 108.954 163.637 109.356C163.385 109.894 163.028 110.241 162.646 110.452C162.208 110.744 161.72 110.764 161.152 110.729L161.016 110.754C160.528 110.774 160.07 110.577 159.829 110.411C159.507 110.19 159.322 109.943 159.136 109.696C158.95 109.45 158.9 109.178 158.85 108.907L158.633 108.876C158.603 109.093 158.437 109.334 158.271 109.575C158.104 109.817 157.802 110.083 157.475 110.214C157.148 110.345 156.741 110.42 156.173 110.384L156.037 110.41C155.469 110.374 154.875 110.203 154.528 109.846C154.126 109.569 153.835 109.131 153.599 108.613C153.363 108.094 153.318 107.471 153.354 106.902L153.711 101.218ZM155.282 104.79L155.145 106.712C155.084 107.144 155.159 107.552 155.425 107.854C155.611 108.1 155.933 108.322 156.285 108.327L156.421 108.302C156.853 108.362 157.18 108.232 157.347 107.99C157.649 107.724 157.734 107.427 157.715 106.939L157.852 105.018L155.282 104.79ZM159.854 105.21L159.716 107.131C159.656 107.564 159.786 107.891 159.917 108.218C160.047 108.545 160.424 108.686 160.776 108.691L160.912 108.666C161.264 108.671 161.591 108.54 161.838 108.354C162.059 108.033 162.225 107.791 162.206 107.303L162.343 105.382L159.854 105.21Z" fill="black"/>
<path d="M151.436 115.544C151.638 114.734 151.946 114.116 152.469 113.527C152.937 113.019 153.431 112.647 154.085 112.386C154.683 112.205 155.387 112.216 156.117 112.362L156.413 112.447L155.924 114.364L155.707 114.334C155.114 114.162 154.651 114.318 154.213 114.61C153.776 114.901 153.443 115.384 153.272 115.978C153.045 116.651 153.145 117.195 153.3 117.658C153.456 118.121 153.858 118.397 154.371 118.513L154.587 118.544C154.884 118.629 155.236 118.634 155.427 118.529C155.618 118.423 155.865 118.237 156.031 117.996C156.197 117.754 156.283 117.458 156.424 117.08L157.025 115.003L159.101 115.603L159.963 119.517L160.179 119.547L161.587 114.23L163.287 114.689L161.223 122.163L158.633 121.448L157.822 117.805L157.606 117.775L157.434 118.369C157.318 118.882 157.041 119.284 156.764 119.686C156.487 120.089 156.049 120.38 155.586 120.536C155.123 120.692 154.5 120.737 153.906 120.566L153.69 120.535C153.016 120.309 152.478 120.057 152.026 119.508C151.655 119.015 151.338 118.442 151.213 117.762C151.168 117.139 151.234 116.354 151.436 115.544Z" fill="black"/>
<path d="M149.833 121.318L159.757 126.016L158.835 127.872L150.605 123.985L148.423 128.531L146.729 127.721L149.833 121.318Z" fill="black"/>
<path d="M146.389 128.556L153.543 137.277L151.413 140.199L140.829 136.115L142.048 134.344L144.391 135.246L146.687 132.082L145.065 130.135L146.389 128.556ZM148.099 133.648L146.357 136.006L151.445 138.086L151.611 137.844L148.099 133.648Z" fill="black"/>
<path d="M140.222 137L141.448 138.318L140.431 139.279L145.416 144.608L146.432 143.647L147.658 144.966L144.361 148.033C143.289 149.074 142.253 149.547 141.116 149.476C140.06 149.46 139.039 148.876 137.999 147.804L136.587 146.239C135.547 145.167 135.131 144.05 135.147 142.994C135.163 141.938 135.747 140.917 136.819 139.876L140.222 137ZM138.946 140.747L138.231 141.441C137.627 141.974 137.32 142.592 137.284 143.161C137.329 143.785 137.565 144.303 138.097 144.907L139.59 146.527C140.122 147.131 140.741 147.438 141.309 147.474C141.877 147.509 142.531 147.248 143.135 146.715L143.85 146.021L138.946 140.747Z" fill="black"/>
<path d="M131.85 144.164L138.079 153.197L136.328 154.363L130.099 145.331L131.85 144.164Z" fill="black"/>
<path d="M128.183 146.738L133.128 156.429L126.904 159.616L126.035 157.95L130.458 155.658L129.329 153.339L125.288 155.42L124.42 153.754L128.46 151.673L127.25 149.299L122.691 151.616L121.823 149.95L128.183 146.738Z" fill="black"/>
<path d="M116.488 151.498C117.278 151.211 118.037 151.141 118.766 151.287C119.496 151.433 120.089 151.605 120.596 152.073C121.104 152.541 121.42 153.114 121.706 153.904L121.862 154.367L119.93 154.935L119.775 154.472C119.594 153.873 119.303 153.435 118.765 153.184C118.307 152.987 117.684 153.032 117.004 153.158C116.27 153.364 115.832 153.655 115.611 153.977C115.389 154.299 115.328 154.732 115.403 155.139C115.453 155.411 115.639 155.657 115.88 155.824C116.122 155.99 116.338 156.02 116.69 156.025C117.042 156.03 117.475 156.091 117.882 156.016L118.234 156.021C118.994 155.951 119.698 155.961 120.211 156.077C120.724 156.193 121.317 156.364 121.664 156.721C122.066 156.998 122.302 157.516 122.563 158.17C122.743 158.769 122.788 159.393 122.616 159.986C122.445 160.58 122.168 160.982 121.619 161.435C121.071 161.887 120.497 162.204 119.762 162.41C119.028 162.616 118.268 162.686 117.62 162.595C116.971 162.504 116.433 162.253 115.87 161.865C115.443 161.452 114.991 160.904 114.785 160.169L114.63 159.707L116.562 159.139L116.717 159.602C116.792 160.009 117.058 160.311 117.244 160.558C117.486 160.724 117.727 160.89 118.079 160.895C118.431 160.9 118.783 160.906 119.11 160.775C119.709 160.594 120.091 160.383 120.313 160.061C120.534 159.739 120.54 159.387 120.465 158.98C120.415 158.708 120.309 158.517 120.068 158.351C119.907 158.24 119.61 158.154 119.314 158.069C119.017 157.983 118.61 158.058 118.122 158.078L117.77 158.073C117.01 158.143 116.306 158.133 115.657 158.042C115.008 157.951 114.551 157.755 114.068 157.423C113.666 157.146 113.295 156.653 113.169 155.973C112.989 155.375 112.944 154.751 113.116 154.157C113.287 153.564 113.62 153.081 114.168 152.629C114.989 152.126 115.618 151.729 116.488 151.498Z" fill="black"/>
</g>
<defs>
<clipPath id="clip0_148_575">
<rect width="184.734" height="126.899" fill="white" transform="translate(85.3574 14.5449) rotate(34.5456)"/>
</clipPath>
</defs>
</svg>
