<svg width="168" height="152" viewBox="0 0 168 152" fill="none" xmlns="http://www.w3.org/2000/svg">
<g filter="url(#filter0_d_148_565)">
<mask id="path-1-outside-1_148_565" maskUnits="userSpaceOnUse" x="-6.96758" y="-41.3541" width="213.059" height="200.12" fill="black">
<rect fill="white" x="-6.96758" y="-41.3541" width="213.059" height="200.12"/>
<path d="M17.5762 37.0201L7.10118 18.2463L10.8082 16.7731L19.5695 33.2135L20.0788 33.0111L15.732 14.8165L22.1839 12.2526L31.5111 28.468L32.0205 28.2656L27.1077 10.2959L30.8147 8.82282L36.0829 29.6658L29.631 32.2297L20.0897 15.6406L19.5804 15.843L24.0281 34.4562L17.5762 37.0201Z"/>
<path d="M44.8225 28.1034L43.1759 6.85196L56.8376 5.79344L57.1198 9.43655L47.4656 10.1846L47.8584 15.2545L56.6626 14.5724L56.9449 18.2155L48.1407 18.8976L48.5477 24.1498L58.384 23.3877L58.6663 27.0308L44.8225 28.1034Z"/>
<path d="M64.1235 27.0984L64.7599 23.624L67.5155 24.1288L70.083 10.1113L67.3275 9.60655L67.9639 6.13213L78.7465 8.10719C80.0245 8.34127 81.0925 8.76391 81.9505 9.37511C82.8322 9.97 83.4594 10.7143 83.8323 11.6082C84.2288 12.4857 84.3264 13.4735 84.1253 14.5718L84.0704 14.8713C83.8948 15.8297 83.5707 16.5856 83.0979 17.1387C82.6287 17.6719 82.1135 18.0625 81.5521 18.3106C81.0143 18.5423 80.513 18.6878 80.0481 18.7471L79.9493 19.2862C80.3667 19.4865 80.8039 19.8039 81.2609 20.2384C81.7215 20.653 82.0748 21.2027 82.3209 21.8876C82.5869 22.5761 82.6285 23.4195 82.4456 24.4179L82.3907 24.7174C82.1786 25.8756 81.7261 26.8246 81.0334 27.5645C80.3443 28.2844 79.4803 28.7763 78.4414 29.04C77.4224 29.3074 76.2839 29.3259 75.026 29.0954L64.1235 27.0984ZM71.4911 24.7331L75.2051 25.4134C76.0637 25.5707 76.791 25.4872 77.387 25.163C78.0029 24.8424 78.3822 24.2928 78.5249 23.514L78.5797 23.2145C78.7224 22.4358 78.5725 21.7892 78.1301 21.2747C77.6878 20.7603 77.0273 20.4226 76.1487 20.2617L72.4347 19.5814L71.4911 24.7331ZM73.093 15.9872L76.7472 16.6565C77.5659 16.8065 78.2732 16.7193 78.8692 16.3951C79.4851 16.0745 79.8607 15.5448 79.9961 14.806L80.0509 14.5065C80.1899 13.7477 80.0364 13.1211 79.5904 12.6267C79.148 12.1122 78.5075 11.7782 77.6689 11.6246L74.0147 10.9553L73.093 15.9872Z"/>
<path d="M93.6846 35.8989C92.2387 35.2052 91.0805 34.3342 90.2099 33.2861C89.3394 32.2379 88.8121 31.0843 88.6282 29.8253C88.4713 28.5567 88.709 27.2635 89.3413 25.9457L89.5784 25.4515L93.0925 27.1376L92.9081 27.5219C92.4163 28.5469 92.378 29.5417 92.7932 30.5065C93.2172 31.453 94.0149 32.2072 95.1863 32.7692C96.3759 33.34 97.4272 33.4954 98.34 33.2354C99.2711 32.9842 99.943 32.4285 100.356 31.5683L100.487 31.2937C100.768 30.708 100.85 30.1619 100.733 29.6554C100.616 29.1488 100.35 28.6946 99.9347 28.2928C99.5283 27.8727 99.014 27.5133 98.3917 27.2147L94.5482 25.3706L96.3924 21.5271L104.178 21.2096L104.388 20.7704L94.6698 16.1073L96.1715 12.9776L109.788 19.5112L107.549 24.1783L100.281 24.4737L100.07 24.913L101.086 25.4003C101.946 25.8131 102.696 26.3865 103.334 27.1206C103.991 27.8636 104.409 28.7284 104.588 29.7152C104.777 30.6836 104.594 31.7444 104.041 32.8974L103.883 33.2269C103.286 34.4714 102.461 35.4155 101.409 36.0592C100.366 36.6845 99.1729 36.9899 97.8289 36.9755C96.5119 36.9516 95.1305 36.5927 93.6846 35.8989Z"/>
<path d="M106.079 42.4053L119.654 25.9718L122.753 28.5316L111.505 42.148L119.017 48.3536L116.69 51.1708L106.079 42.4053Z"/>
<path d="M119.646 54.0048L140.143 45.9034L144.288 51.5481L130.425 68.6812L127.974 65.3434L131.068 61.635L126.562 55.4994L122.098 57.3426L119.646 54.0048ZM130.115 54.0612L133.504 58.6752L140.341 50.4427L140.016 50.0009L130.115 54.0612Z"/>
<path d="M132.589 72.7118L135.891 71.4563L136.886 74.0748L150.206 69.0093L149.211 66.3908L152.512 65.1353L155.629 73.3322C156.647 76.0076 156.736 78.2976 155.896 80.2023C155.083 82.1187 153.339 83.5856 150.664 84.6031L146.907 86.0318C144.231 87.0492 141.944 87.1156 140.043 86.2311C138.169 85.3583 136.724 83.5842 135.706 80.9088L132.589 72.7118ZM138.429 77.7884L139.143 79.6669C139.721 81.1848 140.541 82.1433 141.605 82.5423C142.669 82.9413 143.922 82.8665 145.364 82.3182L149.349 80.8028C150.81 80.2472 151.796 79.4705 152.307 78.4726C152.837 77.4675 152.813 76.2059 152.236 74.688L151.521 72.8095L138.429 77.7884Z"/>
<path d="M139.842 95.5036L160.901 92.2116L161.522 96.1828L140.462 99.4749L139.842 95.5036Z"/>
<path d="M141.376 106.852L162.679 107.577L162.214 121.271L158.562 121.147L158.891 111.469L153.808 111.297L153.508 120.122L149.857 119.998L150.157 111.173L144.892 110.994L144.557 120.854L140.905 120.73L141.376 106.852Z"/>
<path d="M137.499 133.727C137.954 132.147 138.64 130.834 139.554 129.788C140.469 128.742 141.551 128.03 142.801 127.651C144.051 127.272 145.418 127.297 146.9 127.724L147.719 127.961L146.622 131.764L145.803 131.528C144.574 131.173 143.538 131.286 142.694 131.867C141.87 132.453 141.269 133.4 140.892 134.706C140.51 136.033 140.489 137.094 140.83 137.889C141.165 138.704 141.742 139.23 142.561 139.466C143.127 139.63 143.633 139.596 144.08 139.366C144.521 139.155 144.939 138.769 145.334 138.206C145.742 137.669 146.171 136.99 146.619 136.168L146.959 135.538C147.677 134.223 148.416 133.127 149.176 132.248C149.951 131.394 150.807 130.806 151.745 130.485C152.677 130.183 153.767 130.213 155.015 130.573C156.264 130.933 157.242 131.532 157.951 132.371C158.674 133.234 159.115 134.27 159.273 135.478C159.446 136.711 159.321 138.058 158.899 139.521C158.477 140.984 157.849 142.208 157.016 143.193C156.196 144.203 155.196 144.886 154.015 145.243C152.849 145.625 151.524 145.602 150.042 145.174L149.164 144.921L150.262 141.118L151.139 141.371C151.92 141.596 152.589 141.62 153.147 141.443C153.719 141.291 154.194 140.963 154.572 140.46C154.969 139.961 155.28 139.322 155.505 138.542C155.843 137.372 155.869 136.439 155.583 135.744C155.312 135.074 154.796 134.63 154.035 134.41C153.528 134.264 153.062 134.267 152.638 134.419C152.208 134.591 151.8 134.906 151.414 135.365C151.028 135.824 150.629 136.438 150.217 137.207L149.877 137.837C149.143 139.21 148.377 140.363 147.58 141.295C146.777 142.246 145.889 142.909 144.915 143.283C143.941 143.657 142.829 143.664 141.581 143.304C140.333 142.943 139.324 142.304 138.554 141.384C137.798 140.49 137.315 139.379 137.107 138.051C136.912 136.748 137.043 135.307 137.499 133.727Z"/>
</mask>
<path d="M17.5762 37.0201L7.10118 18.2463L10.8082 16.7731L19.5695 33.2135L20.0788 33.0111L15.732 14.8165L22.1839 12.2526L31.5111 28.468L32.0205 28.2656L27.1077 10.2959L30.8147 8.82282L36.0829 29.6658L29.631 32.2297L20.0897 15.6406L19.5804 15.843L24.0281 34.4562L17.5762 37.0201Z" fill="#7D0BFE"/>
<path d="M44.8225 28.1034L43.1759 6.85196L56.8376 5.79344L57.1198 9.43655L47.4656 10.1846L47.8584 15.2545L56.6626 14.5724L56.9449 18.2155L48.1407 18.8976L48.5477 24.1498L58.384 23.3877L58.6663 27.0308L44.8225 28.1034Z" fill="#7D0BFE"/>
<path d="M64.1235 27.0984L64.7599 23.624L67.5155 24.1288L70.083 10.1113L67.3275 9.60655L67.9639 6.13213L78.7465 8.10719C80.0245 8.34127 81.0925 8.76391 81.9505 9.37511C82.8322 9.97 83.4594 10.7143 83.8323 11.6082C84.2288 12.4857 84.3264 13.4735 84.1253 14.5718L84.0704 14.8713C83.8948 15.8297 83.5707 16.5856 83.0979 17.1387C82.6287 17.6719 82.1135 18.0625 81.5521 18.3106C81.0143 18.5423 80.513 18.6878 80.0481 18.7471L79.9493 19.2862C80.3667 19.4865 80.8039 19.8039 81.2609 20.2384C81.7215 20.653 82.0748 21.2027 82.3209 21.8876C82.5869 22.5761 82.6285 23.4195 82.4456 24.4179L82.3907 24.7174C82.1786 25.8756 81.7261 26.8246 81.0334 27.5645C80.3443 28.2844 79.4803 28.7763 78.4414 29.04C77.4224 29.3074 76.2839 29.3259 75.026 29.0954L64.1235 27.0984ZM71.4911 24.7331L75.2051 25.4134C76.0637 25.5707 76.791 25.4872 77.387 25.163C78.0029 24.8424 78.3822 24.2928 78.5249 23.514L78.5797 23.2145C78.7224 22.4358 78.5725 21.7892 78.1301 21.2747C77.6878 20.7603 77.0273 20.4226 76.1487 20.2617L72.4347 19.5814L71.4911 24.7331ZM73.093 15.9872L76.7472 16.6565C77.5659 16.8065 78.2732 16.7193 78.8692 16.3951C79.4851 16.0745 79.8607 15.5448 79.9961 14.806L80.0509 14.5065C80.1899 13.7477 80.0364 13.1211 79.5904 12.6267C79.148 12.1122 78.5075 11.7782 77.6689 11.6246L74.0147 10.9553L73.093 15.9872Z" fill="#7D0BFE"/>
<path d="M93.6846 35.8989C92.2387 35.2052 91.0805 34.3342 90.2099 33.2861C89.3394 32.2379 88.8121 31.0843 88.6282 29.8253C88.4713 28.5567 88.709 27.2635 89.3413 25.9457L89.5784 25.4515L93.0925 27.1376L92.9081 27.5219C92.4163 28.5469 92.378 29.5417 92.7932 30.5065C93.2172 31.453 94.0149 32.2072 95.1863 32.7692C96.3759 33.34 97.4272 33.4954 98.34 33.2354C99.2711 32.9842 99.943 32.4285 100.356 31.5683L100.487 31.2937C100.768 30.708 100.85 30.1619 100.733 29.6554C100.616 29.1488 100.35 28.6946 99.9347 28.2928C99.5283 27.8727 99.014 27.5133 98.3917 27.2147L94.5482 25.3706L96.3924 21.5271L104.178 21.2096L104.388 20.7704L94.6698 16.1073L96.1715 12.9776L109.788 19.5112L107.549 24.1783L100.281 24.4737L100.07 24.913L101.086 25.4003C101.946 25.8131 102.696 26.3865 103.334 27.1206C103.991 27.8636 104.409 28.7284 104.588 29.7152C104.777 30.6836 104.594 31.7444 104.041 32.8974L103.883 33.2269C103.286 34.4714 102.461 35.4155 101.409 36.0592C100.366 36.6845 99.1729 36.9899 97.8289 36.9755C96.5119 36.9516 95.1305 36.5927 93.6846 35.8989Z" fill="#7D0BFE"/>
<path d="M106.079 42.4053L119.654 25.9718L122.753 28.5316L111.505 42.148L119.017 48.3536L116.69 51.1708L106.079 42.4053Z" fill="#7D0BFE"/>
<path d="M119.646 54.0048L140.143 45.9034L144.288 51.5481L130.425 68.6812L127.974 65.3434L131.068 61.635L126.562 55.4994L122.098 57.3426L119.646 54.0048ZM130.115 54.0612L133.504 58.6752L140.341 50.4427L140.016 50.0009L130.115 54.0612Z" fill="#7D0BFE"/>
<path d="M132.589 72.7118L135.891 71.4563L136.886 74.0748L150.206 69.0093L149.211 66.3908L152.512 65.1353L155.629 73.3322C156.647 76.0076 156.736 78.2976 155.896 80.2023C155.083 82.1187 153.339 83.5856 150.664 84.6031L146.907 86.0318C144.231 87.0492 141.944 87.1156 140.043 86.2311C138.169 85.3583 136.724 83.5842 135.706 80.9088L132.589 72.7118ZM138.429 77.7884L139.143 79.6669C139.721 81.1848 140.541 82.1433 141.605 82.5423C142.669 82.9413 143.922 82.8665 145.364 82.3182L149.349 80.8028C150.81 80.2472 151.796 79.4705 152.307 78.4726C152.837 77.4675 152.813 76.2059 152.236 74.688L151.521 72.8095L138.429 77.7884Z" fill="#7D0BFE"/>
<path d="M139.842 95.5036L160.901 92.2116L161.522 96.1828L140.462 99.4749L139.842 95.5036Z" fill="#7D0BFE"/>
<path d="M141.376 106.852L162.679 107.577L162.214 121.271L158.562 121.147L158.891 111.469L153.808 111.297L153.508 120.122L149.857 119.998L150.157 111.173L144.892 110.994L144.557 120.854L140.905 120.73L141.376 106.852Z" fill="#7D0BFE"/>
<path d="M137.499 133.727C137.954 132.147 138.64 130.834 139.554 129.788C140.469 128.742 141.551 128.03 142.801 127.651C144.051 127.272 145.418 127.297 146.9 127.724L147.719 127.961L146.622 131.764L145.803 131.528C144.574 131.173 143.538 131.286 142.694 131.867C141.87 132.453 141.269 133.4 140.892 134.706C140.51 136.033 140.489 137.094 140.83 137.889C141.165 138.704 141.742 139.23 142.561 139.466C143.127 139.63 143.633 139.596 144.08 139.366C144.521 139.155 144.939 138.769 145.334 138.206C145.742 137.669 146.171 136.99 146.619 136.168L146.959 135.538C147.677 134.223 148.416 133.127 149.176 132.248C149.951 131.394 150.807 130.806 151.745 130.485C152.677 130.183 153.767 130.213 155.015 130.573C156.264 130.933 157.242 131.532 157.951 132.371C158.674 133.234 159.115 134.27 159.273 135.478C159.446 136.711 159.321 138.058 158.899 139.521C158.477 140.984 157.849 142.208 157.016 143.193C156.196 144.203 155.196 144.886 154.015 145.243C152.849 145.625 151.524 145.602 150.042 145.174L149.164 144.921L150.262 141.118L151.139 141.371C151.92 141.596 152.589 141.62 153.147 141.443C153.719 141.291 154.194 140.963 154.572 140.46C154.969 139.961 155.28 139.322 155.505 138.542C155.843 137.372 155.869 136.439 155.583 135.744C155.312 135.074 154.796 134.63 154.035 134.41C153.528 134.264 153.062 134.267 152.638 134.419C152.208 134.591 151.8 134.906 151.414 135.365C151.028 135.824 150.629 136.438 150.217 137.207L149.877 137.837C149.143 139.21 148.377 140.363 147.58 141.295C146.777 142.246 145.889 142.909 144.915 143.283C143.941 143.657 142.829 143.664 141.581 143.304C140.333 142.943 139.324 142.304 138.554 141.384C137.798 140.49 137.315 139.379 137.107 138.051C136.912 136.748 137.043 135.307 137.499 133.727Z" fill="#7D0BFE"/>
<path d="M17.5762 37.0201L7.10118 18.2463L10.8082 16.7731L19.5695 33.2135L20.0788 33.0111L15.732 14.8165L22.1839 12.2526L31.5111 28.468L32.0205 28.2656L27.1077 10.2959L30.8147 8.82282L36.0829 29.6658L29.631 32.2297L20.0897 15.6406L19.5804 15.843L24.0281 34.4562L17.5762 37.0201Z" stroke="#FFE2E2" stroke-width="9.31677" mask="url(#path-1-outside-1_148_565)"/>
<path d="M44.8225 28.1034L43.1759 6.85196L56.8376 5.79344L57.1198 9.43655L47.4656 10.1846L47.8584 15.2545L56.6626 14.5724L56.9449 18.2155L48.1407 18.8976L48.5477 24.1498L58.384 23.3877L58.6663 27.0308L44.8225 28.1034Z" stroke="#FFE2E2" stroke-width="9.31677" mask="url(#path-1-outside-1_148_565)"/>
<path d="M64.1235 27.0984L64.7599 23.624L67.5155 24.1288L70.083 10.1113L67.3275 9.60655L67.9639 6.13213L78.7465 8.10719C80.0245 8.34127 81.0925 8.76391 81.9505 9.37511C82.8322 9.97 83.4594 10.7143 83.8323 11.6082C84.2288 12.4857 84.3264 13.4735 84.1253 14.5718L84.0704 14.8713C83.8948 15.8297 83.5707 16.5856 83.0979 17.1387C82.6287 17.6719 82.1135 18.0625 81.5521 18.3106C81.0143 18.5423 80.513 18.6878 80.0481 18.7471L79.9493 19.2862C80.3667 19.4865 80.8039 19.8039 81.2609 20.2384C81.7215 20.653 82.0748 21.2027 82.3209 21.8876C82.5869 22.5761 82.6285 23.4195 82.4456 24.4179L82.3907 24.7174C82.1786 25.8756 81.7261 26.8246 81.0334 27.5645C80.3443 28.2844 79.4803 28.7763 78.4414 29.04C77.4224 29.3074 76.2839 29.3259 75.026 29.0954L64.1235 27.0984ZM71.4911 24.7331L75.2051 25.4134C76.0637 25.5707 76.791 25.4872 77.387 25.163C78.0029 24.8424 78.3822 24.2928 78.5249 23.514L78.5797 23.2145C78.7224 22.4358 78.5725 21.7892 78.1301 21.2747C77.6878 20.7603 77.0273 20.4226 76.1487 20.2617L72.4347 19.5814L71.4911 24.7331ZM73.093 15.9872L76.7472 16.6565C77.5659 16.8065 78.2732 16.7193 78.8692 16.3951C79.4851 16.0745 79.8607 15.5448 79.9961 14.806L80.0509 14.5065C80.1899 13.7477 80.0364 13.1211 79.5904 12.6267C79.148 12.1122 78.5075 11.7782 77.6689 11.6246L74.0147 10.9553L73.093 15.9872Z" stroke="#FFE2E2" stroke-width="9.31677" mask="url(#path-1-outside-1_148_565)"/>
<path d="M93.6846 35.8989C92.2387 35.2052 91.0805 34.3342 90.2099 33.2861C89.3394 32.2379 88.8121 31.0843 88.6282 29.8253C88.4713 28.5567 88.709 27.2635 89.3413 25.9457L89.5784 25.4515L93.0925 27.1376L92.9081 27.5219C92.4163 28.5469 92.378 29.5417 92.7932 30.5065C93.2172 31.453 94.0149 32.2072 95.1863 32.7692C96.3759 33.34 97.4272 33.4954 98.34 33.2354C99.2711 32.9842 99.943 32.4285 100.356 31.5683L100.487 31.2937C100.768 30.708 100.85 30.1619 100.733 29.6554C100.616 29.1488 100.35 28.6946 99.9347 28.2928C99.5283 27.8727 99.014 27.5133 98.3917 27.2147L94.5482 25.3706L96.3924 21.5271L104.178 21.2096L104.388 20.7704L94.6698 16.1073L96.1715 12.9776L109.788 19.5112L107.549 24.1783L100.281 24.4737L100.07 24.913L101.086 25.4003C101.946 25.8131 102.696 26.3865 103.334 27.1206C103.991 27.8636 104.409 28.7284 104.588 29.7152C104.777 30.6836 104.594 31.7444 104.041 32.8974L103.883 33.2269C103.286 34.4714 102.461 35.4155 101.409 36.0592C100.366 36.6845 99.1729 36.9899 97.8289 36.9755C96.5119 36.9516 95.1305 36.5927 93.6846 35.8989Z" stroke="#FFE2E2" stroke-width="9.31677" mask="url(#path-1-outside-1_148_565)"/>
<path d="M106.079 42.4053L119.654 25.9718L122.753 28.5316L111.505 42.148L119.017 48.3536L116.69 51.1708L106.079 42.4053Z" stroke="#FFE2E2" stroke-width="9.31677" mask="url(#path-1-outside-1_148_565)"/>
<path d="M119.646 54.0048L140.143 45.9034L144.288 51.5481L130.425 68.6812L127.974 65.3434L131.068 61.635L126.562 55.4994L122.098 57.3426L119.646 54.0048ZM130.115 54.0612L133.504 58.6752L140.341 50.4427L140.016 50.0009L130.115 54.0612Z" stroke="#FFE2E2" stroke-width="9.31677" mask="url(#path-1-outside-1_148_565)"/>
<path d="M132.589 72.7118L135.891 71.4563L136.886 74.0748L150.206 69.0093L149.211 66.3908L152.512 65.1353L155.629 73.3322C156.647 76.0076 156.736 78.2976 155.896 80.2023C155.083 82.1187 153.339 83.5856 150.664 84.6031L146.907 86.0318C144.231 87.0492 141.944 87.1156 140.043 86.2311C138.169 85.3583 136.724 83.5842 135.706 80.9088L132.589 72.7118ZM138.429 77.7884L139.143 79.6669C139.721 81.1848 140.541 82.1433 141.605 82.5423C142.669 82.9413 143.922 82.8665 145.364 82.3182L149.349 80.8028C150.81 80.2472 151.796 79.4705 152.307 78.4726C152.837 77.4675 152.813 76.2059 152.236 74.688L151.521 72.8095L138.429 77.7884Z" stroke="#FFE2E2" stroke-width="9.31677" mask="url(#path-1-outside-1_148_565)"/>
<path d="M139.842 95.5036L160.901 92.2116L161.522 96.1828L140.462 99.4749L139.842 95.5036Z" stroke="#FFE2E2" stroke-width="9.31677" mask="url(#path-1-outside-1_148_565)"/>
<path d="M141.376 106.852L162.679 107.577L162.214 121.271L158.562 121.147L158.891 111.469L153.808 111.297L153.508 120.122L149.857 119.998L150.157 111.173L144.892 110.994L144.557 120.854L140.905 120.73L141.376 106.852Z" stroke="#FFE2E2" stroke-width="9.31677" mask="url(#path-1-outside-1_148_565)"/>
<path d="M137.499 133.727C137.954 132.147 138.64 130.834 139.554 129.788C140.469 128.742 141.551 128.03 142.801 127.651C144.051 127.272 145.418 127.297 146.9 127.724L147.719 127.961L146.622 131.764L145.803 131.528C144.574 131.173 143.538 131.286 142.694 131.867C141.87 132.453 141.269 133.4 140.892 134.706C140.51 136.033 140.489 137.094 140.83 137.889C141.165 138.704 141.742 139.23 142.561 139.466C143.127 139.63 143.633 139.596 144.08 139.366C144.521 139.155 144.939 138.769 145.334 138.206C145.742 137.669 146.171 136.99 146.619 136.168L146.959 135.538C147.677 134.223 148.416 133.127 149.176 132.248C149.951 131.394 150.807 130.806 151.745 130.485C152.677 130.183 153.767 130.213 155.015 130.573C156.264 130.933 157.242 131.532 157.951 132.371C158.674 133.234 159.115 134.27 159.273 135.478C159.446 136.711 159.321 138.058 158.899 139.521C158.477 140.984 157.849 142.208 157.016 143.193C156.196 144.203 155.196 144.886 154.015 145.243C152.849 145.625 151.524 145.602 150.042 145.174L149.164 144.921L150.262 141.118L151.139 141.371C151.92 141.596 152.589 141.62 153.147 141.443C153.719 141.291 154.194 140.963 154.572 140.46C154.969 139.961 155.28 139.322 155.505 138.542C155.843 137.372 155.869 136.439 155.583 135.744C155.312 135.074 154.796 134.63 154.035 134.41C153.528 134.264 153.062 134.267 152.638 134.419C152.208 134.591 151.8 134.906 151.414 135.365C151.028 135.824 150.629 136.438 150.217 137.207L149.877 137.837C149.143 139.21 148.377 140.363 147.58 141.295C146.777 142.246 145.889 142.909 144.915 143.283C143.941 143.657 142.829 143.664 141.581 143.304C140.333 142.943 139.324 142.304 138.554 141.384C137.798 140.49 137.315 139.379 137.107 138.051C136.912 136.748 137.043 135.307 137.499 133.727Z" stroke="#FFE2E2" stroke-width="9.31677" mask="url(#path-1-outside-1_148_565)"/>
</g>
<defs>
<filter id="filter0_d_148_565" x="0.445312" y="0.710449" width="167.048" height="150.792" filterUnits="userSpaceOnUse" color-interpolation-filters="sRGB">
<feFlood flood-opacity="0" result="BackgroundImageFix"/>
<feColorMatrix in="SourceAlpha" type="matrix" values="0 0 0 0 0 0 0 0 0 0 0 0 0 0 0 0 0 0 127 0" result="hardAlpha"/>
<feOffset dy="1.33097"/>
<feComposite in2="hardAlpha" operator="out"/>
<feColorMatrix type="matrix" values="0 0 0 0 0.490196 0 0 0 0 0.0431373 0 0 0 0 0.996078 0 0 0 1 0"/>
<feBlend mode="normal" in2="BackgroundImageFix" result="effect1_dropShadow_148_565"/>
<feBlend mode="normal" in="SourceGraphic" in2="effect1_dropShadow_148_565" result="shape"/>
</filter>
</defs>
</svg>
