<svg width="187" height="43" viewBox="0 0 187 43" fill="none" xmlns="http://www.w3.org/2000/svg">
<path d="M58.3973 6.64647C58.0547 5.36172 57.3865 4.19048 56.4592 3.24939C55.5319 2.30829 54.3778 1.63018 53.112 1.28259C48.4775 0 29.8272 0 29.8272 0C29.8272 0 11.1761 0.0389224 6.5424 1.32151C5.27661 1.66916 4.12264 2.3473 3.19539 3.28839C2.26815 4.22948 1.6 5.40069 1.25746 6.68539C-0.144308 15.0426 -0.688142 27.7761 1.29581 35.7986C1.63835 37.0833 2.3065 38.2545 3.23374 39.1956C4.16099 40.1367 5.31496 40.8148 6.58075 41.1625C11.2148 42.4451 29.8655 42.4451 29.8655 42.4451C29.8655 42.4451 48.5162 42.4451 53.1503 41.1625C54.4161 40.8148 55.5701 40.1367 56.4973 39.1956C57.4246 38.2545 58.0927 37.0833 58.4353 35.7986C59.9134 27.4299 60.3692 14.7041 58.3969 6.64684L58.3973 6.64647Z" fill="#FF0000"/>
<path d="M23.8906 30.3178L39.3627 21.2226L23.8906 12.127V30.3178Z" fill="white"/>
<path d="M179.417 12.3222C181.446 12.3222 182.978 12.7106 184.05 13.4491C185.123 14.1878 185.889 15.3537 186.349 16.9476C186.808 18.5412 186.999 20.7175 186.999 23.5162V28.0642H177.157V29.4632L177.31 33.3113C177.425 34.1665 177.617 34.7885 177.923 35.177C178.23 35.5659 178.727 35.7601 179.378 35.7601C180.259 35.7601 180.872 35.4106 181.178 34.7111C181.523 34.0112 181.676 32.845 181.714 31.2514L186.808 31.5624C186.846 31.7956 186.846 32.1066 186.846 32.4951C186.846 34.9439 186.195 36.771 184.855 37.9757C183.514 39.1805 181.676 39.8025 179.263 39.8025C176.353 39.8025 174.323 38.8698 173.174 37.0431C172.026 35.216 171.413 32.3394 171.413 28.4916V23.7883C171.543 17.1808 172.688 12.3414 179.417 12.3222ZM108.605 12.8274V32.3008C108.605 33.467 108.72 34.3222 108.988 34.8275C109.532 35.908 110.941 35.6319 111.707 35.0996C112.149 34.7962 112.506 34.3809 112.741 33.8948V12.827H118.6V39.3747H114.005L113.507 36.1097H113.392C112.129 38.5585 110.252 39.8021 107.763 39.8021C103.931 39.7925 102.994 36.9908 102.77 34.1454L102.756 33.9449C102.728 33.5139 102.712 33.0823 102.707 32.6504V12.8274H108.605H108.605ZM138.822 12.8274V32.3008C138.822 33.467 138.936 34.3222 139.204 34.8275C139.749 35.908 141.158 35.6319 141.924 35.0996C142.366 34.7962 142.722 34.3809 142.958 33.8948V12.827H148.817V39.3747H144.221L143.724 36.1097H143.609C142.345 38.5585 140.468 39.8021 137.979 39.8021C134.148 39.7925 133.21 36.9908 132.987 34.1454L132.972 33.9449C132.945 33.5139 132.929 33.0823 132.924 32.6504V12.8274H138.822ZM91.6009 12.3222C93.5158 12.3222 95.086 12.7106 96.235 13.5269C97.3837 14.3432 98.2646 15.5872 98.8008 17.2972C99.3369 19.0075 99.605 21.3006 99.605 24.1383V27.986C99.605 30.8236 99.3369 33.0782 98.8008 34.7882C98.2646 36.4989 97.422 37.7426 96.235 38.5588C95.048 39.3362 93.4391 39.7636 91.4479 39.7636C89.3795 39.8025 87.7711 39.3751 86.584 38.5978C85.397 37.7815 84.5541 36.5375 84.0566 34.8275C83.5584 33.1171 83.3287 30.8626 83.3287 28.0253V24.1768C83.3287 21.3392 83.5968 19.0072 84.1713 17.2968C84.7458 15.5479 85.6264 14.3039 86.8521 13.5269C88.0775 12.7492 89.6476 12.3218 91.6009 12.3218V12.3222ZM158.009 1.67188V15.6647H158.047C158.583 14.6542 159.272 13.8379 160.23 13.2159C161.124 12.6056 162.178 12.2808 163.255 12.2832C164.672 12.2832 165.745 12.6717 166.549 13.4101C167.353 14.1878 167.928 15.3926 168.272 17.064C168.606 18.6832 168.796 20.9225 168.808 23.7464L168.808 24.0219V28.2196C168.808 32.1452 168.31 35.0606 167.391 36.9263C166.434 38.792 164.979 39.725 162.987 39.725C161.877 39.725 160.881 39.4529 159.962 38.9477C159.149 38.467 158.475 37.7776 158.008 36.9489L157.932 36.8095H157.817L157.204 39.3362H152.34V1.67225H158.009V1.67188ZM134.57 3.03231V7.85164H128.749V39.3747H123.005V7.85201H117.145V3.03268H134.571L134.57 3.03231ZM71.418 3.03231L71.4217 3.04713C71.4776 3.29957 72.2519 6.79332 73.1036 10.8639L73.1708 11.1864L73.2723 11.6738L73.3403 12.0011L73.3742 12.1654L73.4422 12.4945L73.4761 12.6595L73.5437 12.9898L73.6423 13.4728C74.2176 16.2915 74.7665 19.1184 75.0949 21.1453H75.2483C75.5627 19.3271 76.0196 17.0003 76.5069 14.6245L76.6347 14.004C76.699 13.6933 76.7633 13.3827 76.8283 13.0728L76.9283 12.592C77.59 9.44369 78.2714 6.29969 78.9726 3.16019L78.9835 3.11015L79.001 3.03231H84.8605L78.0818 27.559V39.3362H72.299V27.5975H72.2606L65.5586 3.03194H71.418V3.03231ZM91.4859 16.442C90.6816 16.442 90.1454 16.8698 89.801 17.7639C89.4562 18.6576 89.3032 20.018 89.3032 21.923V30.202C89.3032 32.1455 89.4562 33.5834 89.7627 34.439C90.0691 35.2938 90.6436 35.7216 91.4859 35.7216C92.2901 35.7216 92.8646 35.2938 93.2094 34.439C93.5542 33.5834 93.7072 32.1455 93.7072 30.202V21.9226C93.7072 20.018 93.5538 18.6187 93.2094 17.7635C92.8646 16.8698 92.2901 16.442 91.4859 16.442ZM159.043 17.2197C158.576 17.6571 158.244 18.1965 158.046 18.8708L158.009 19.0075V34.0887C158.483 34.9049 159.158 35.4491 160.345 35.488C160.957 35.488 161.455 35.2549 161.838 34.7885C162.221 34.3222 162.489 33.5445 162.642 32.4562C162.789 31.4116 162.866 29.9725 162.872 28.1399V24.4493C162.872 22.3504 162.795 20.7568 162.681 19.6296C162.527 18.5023 162.336 17.686 161.991 17.2197C161.325 16.2478 159.885 16.2596 159.043 17.2197ZM179.302 16.3256C178.651 16.3645 178.191 16.5588 177.923 16.9087C177.617 17.2972 177.425 17.8803 177.31 18.7355C177.198 19.5732 177.159 22.5017 177.157 22.6188V24.5271H181.446V22.8442V22.8764C181.444 23.4647 181.432 22.535 181.405 21.3937L181.402 21.2402C181.378 20.2371 181.343 19.1188 181.293 18.7355C181.178 17.8414 180.987 17.2193 180.68 16.8698C180.374 16.5198 179.915 16.3256 179.302 16.3256H179.302Z" fill="#282828"/>
</svg>
